<svg width="43" height="29" viewBox="0 0 43 29" fill="none" xmlns="http://www.w3.org/2000/svg">
<path fill-rule="evenodd" clip-rule="evenodd" d="M0.587646 2.21311C0.587646 1.1484 1.45077 0.285278 2.51548 0.285278H41.0722C42.1369 0.285278 43 1.1484 43 2.21311V26.6324C43 27.6971 42.1369 28.5602 41.0722 28.5602H2.51548C1.45077 28.5602 0.587646 27.6971 0.587646 26.6324V2.21311Z" fill="#016FD0"/>
<path fill-rule="evenodd" clip-rule="evenodd" d="M8.82642 21.6699V15.3627H15.8452L16.5982 16.2967L17.3762 15.3627H42.8527V21.2349C42.8527 21.2349 42.1864 21.6635 41.4159 21.6699H27.309L26.46 20.6756V21.6699H23.6778V19.9727C23.6778 19.9727 23.2977 20.2096 22.4761 20.2096H21.5291V21.6699H17.3167L16.5647 20.7158L15.8012 21.6699H8.82642Z" fill="white"/>
<path fill-rule="evenodd" clip-rule="evenodd" d="M0.629883 10.6092L2.21265 7.09827H4.94988L5.84811 9.06493V7.09827H9.25074L9.78546 8.51971L10.3039 7.09827H25.5781V7.81287C25.5781 7.81287 26.3811 7.09827 27.7007 7.09827L32.6566 7.11475L33.5394 9.05567V7.09827H36.3868L37.1706 8.21317V7.09827H40.0442V13.4054H37.1706L36.4195 12.2869V13.4054H32.2359L31.8152 12.4112H30.6905L30.2766 13.4054H27.4394C26.304 13.4054 25.5781 12.7054 25.5781 12.7054V13.4054H21.3003L20.4513 12.4112V13.4054H4.54437L4.12394 12.4112H3.00284L2.58538 13.4054H0.629883L0.629883 10.6092Z" fill="white"/>
<path fill-rule="evenodd" clip-rule="evenodd" d="M0.638184 12.5982L2.77299 7.87561H4.39144L6.5242 12.5982H5.10372L4.71187 11.6525H2.42195L2.02805 12.5982H0.638184ZM4.2608 10.6272L3.56281 8.97471L2.86277 10.6272H4.2608Z" fill="#016FD0"/>
<path fill-rule="evenodd" clip-rule="evenodd" d="M6.67111 12.5976V7.875L8.64619 7.88198L9.79497 10.9268L10.9162 7.875H12.8755V12.5976H11.6346V9.1178L10.3193 12.5976H9.23102L7.91199 9.1178V12.5976H6.67111Z" fill="#016FD0"/>
<path fill-rule="evenodd" clip-rule="evenodd" d="M13.7245 12.5976V7.875H17.7736V8.93138H14.9784V9.73919H17.7083V10.7334H14.9784V11.5723H17.7736V12.5976H13.7245Z" fill="#016FD0"/>
<path fill-rule="evenodd" clip-rule="evenodd" d="M18.4922 12.5982V7.87561H21.2536C22.1685 7.87561 22.9883 8.41394 22.9883 9.40775C22.9883 10.2573 22.2971 10.8045 21.627 10.8583L23.2598 12.5982H21.7434L20.2555 10.9205H19.7331V12.5982H18.4922ZM21.1515 8.93198H19.7331V9.92622H21.1699C21.4186 9.92622 21.7393 9.74285 21.7393 9.4291C21.7393 9.18523 21.4918 8.93198 21.1515 8.93198Z" fill="#016FD0"/>
<path fill-rule="evenodd" clip-rule="evenodd" d="M24.7618 12.5976H23.4948V7.875H24.7618V12.5976Z" fill="#016FD0"/>
<path fill-rule="evenodd" clip-rule="evenodd" d="M27.7661 12.5976H27.4926C26.1694 12.5976 25.366 11.6057 25.366 10.2557C25.366 8.87239 26.1604 7.875 27.8314 7.875H29.2029V8.99352H27.7813C27.1029 8.99352 26.6232 9.4972 26.6232 10.2674C26.6232 11.182 27.1717 11.5661 27.962 11.5661H28.2886L27.7661 12.5976Z" fill="#016FD0"/>
<path fill-rule="evenodd" clip-rule="evenodd" d="M28.3315 12.5982L30.4663 7.87561H32.0848L34.2176 12.5982H32.7971L32.4052 11.6525H30.1153L29.7214 12.5982H28.3315ZM31.9542 10.6272L31.2562 8.97471L30.5561 10.6272H31.9542Z" fill="#016FD0"/>
<path fill-rule="evenodd" clip-rule="evenodd" d="M34.3624 12.5976V7.875H35.9401L37.9545 10.8422V7.875H39.1953V12.5976H37.6687L35.6033 9.55278V12.5976H34.3624Z" fill="#016FD0"/>
<path fill-rule="evenodd" clip-rule="evenodd" d="M9.67535 20.8621V16.1395H13.7245V17.1959H10.9293V18.0037H13.6592V18.998H10.9293V19.8368H13.7245V20.8621H9.67535Z" fill="#016FD0"/>
<path fill-rule="evenodd" clip-rule="evenodd" d="M29.5165 20.8621V16.1395H33.5657V17.1959H30.7704V18.0037H33.4873V18.998H30.7704V19.8368H33.5657V20.8621H29.5165Z" fill="#016FD0"/>
<path fill-rule="evenodd" clip-rule="evenodd" d="M13.8817 20.8621L15.8532 18.53L13.8347 16.1395H15.3981L16.6002 17.6173L17.8064 16.1395H19.3085L17.3166 18.5008L19.2917 20.8621H17.7286L16.5614 19.4077L15.4226 20.8621H13.8817Z" fill="#016FD0"/>
<path fill-rule="evenodd" clip-rule="evenodd" d="M19.4392 20.8629V16.1403H22.1802C23.3049 16.1403 23.9619 16.8299 23.9619 17.7287C23.9619 18.8136 23.1242 19.3715 22.0189 19.3715H20.7127V20.8629H19.4392ZM22.0883 17.2083H20.7127V18.2957H22.0842C22.4467 18.2957 22.7006 18.0672 22.7006 17.752C22.7006 17.4165 22.4454 17.2083 22.0883 17.2083Z" fill="#016FD0"/>
<path fill-rule="evenodd" clip-rule="evenodd" d="M24.5005 20.8621V16.1395H27.2619C28.1768 16.1395 28.9966 16.6779 28.9966 17.6717C28.9966 18.5212 28.3054 19.0684 27.6353 19.1222L29.2681 20.8621H27.7517L26.2638 19.1844H25.7414V20.8621H24.5005ZM27.1598 17.1959H25.7414V18.1901H27.1782C27.4269 18.1901 27.7476 18.0068 27.7476 17.693C27.7476 17.4491 27.5001 17.1959 27.1598 17.1959Z" fill="#016FD0"/>
<path fill-rule="evenodd" clip-rule="evenodd" d="M34.1403 20.8621V19.8368H36.6237C36.9911 19.8368 37.1502 19.6479 37.1502 19.4407C37.1502 19.2422 36.9916 19.0415 36.6237 19.0415H35.5015C34.526 19.0415 33.9827 18.476 33.9827 17.627C33.9827 16.8698 34.4802 16.1395 35.9298 16.1395H38.3462L37.8237 17.2021H35.7338C35.3343 17.2021 35.2114 17.4016 35.2114 17.592C35.2114 17.7878 35.3633 18.0037 35.6685 18.0037H36.8441C37.9315 18.0037 38.4034 18.5906 38.4034 19.3591C38.4034 20.1854 37.8776 20.8621 36.7849 20.8621H34.1403Z" fill="#016FD0"/>
<path fill-rule="evenodd" clip-rule="evenodd" d="M38.6945 20.8621V19.8368H41.1779C41.5454 19.8368 41.7045 19.6479 41.7045 19.4407C41.7045 19.2422 41.5459 19.0415 41.1779 19.0415H40.0557C39.0803 19.0415 38.537 18.476 38.537 17.627C38.537 16.8698 39.0345 16.1395 40.484 16.1395H42.9005L42.378 17.2021H40.2881C39.8886 17.2021 39.7656 17.4016 39.7656 17.592C39.7656 17.7878 39.9176 18.0037 40.2228 18.0037H41.3984C42.4858 18.0037 42.9576 18.5906 42.9576 19.3591C42.9576 20.1854 42.4318 20.8621 41.3392 20.8621H38.6945Z" fill="#016FD0"/>
</svg>
