<svg width="33" height="32" viewBox="0 0 33 32" fill="none" xmlns="http://www.w3.org/2000/svg">
<g clip-path="url(#clip0_834_146)">
<path d="M16.5645 0.862946C8.81039 0.862946 2.50195 6.96531 2.50195 14.4661C2.50195 15.2973 2.50195 21.7276 2.50195 21.842C2.50195 23.3422 3.76364 24.5626 5.31445 24.5626H6.4132C6.8002 25.6181 7.84227 26.3764 9.06445 26.3764C10.6153 26.3764 11.877 25.1559 11.877 23.6558V16.2798C11.877 14.7797 10.6153 13.5592 9.06445 13.5592C7.84227 13.5592 6.8002 14.3175 6.4132 15.373H5.31445C4.98577 15.373 4.67039 15.4283 4.37695 15.5289V14.4661C4.37695 7.96542 9.84427 2.6767 16.5645 2.6767C23.2846 2.6767 28.752 7.96542 28.752 14.4661V15.5289C28.4585 15.4283 28.1431 15.373 27.8145 15.373H26.7157C26.3287 14.3175 25.2866 13.5592 24.0645 13.5592C22.5136 13.5592 21.252 14.7797 21.252 16.2798V23.6558C21.252 25.1559 22.5136 26.3764 24.0645 26.3764C24.3483 26.3764 24.6223 26.3352 24.8808 26.2592C24.5301 27.3753 23.4565 28.1901 22.1895 28.1901H19.2157C18.8287 27.1347 17.7866 26.3764 16.5645 26.3764C15.0136 26.3764 13.752 27.5969 13.752 29.097C13.752 30.5972 15.0136 31.8176 16.5645 31.8176C17.7866 31.8176 18.8287 31.0594 19.2157 30.0039H22.1895C24.7741 30.0039 26.877 27.9698 26.877 25.4695V24.5626H27.8145C29.3653 24.5626 30.627 23.3422 30.627 21.842C30.627 21.7293 30.627 15.2967 30.627 14.4661C30.627 6.96531 24.3185 0.862946 16.5645 0.862946ZM8.12695 16.2798C8.12695 15.7798 8.54752 15.373 9.06445 15.373C9.58139 15.373 10.002 15.7798 10.002 16.2798V23.6558C10.002 24.1558 9.58139 24.5626 9.06445 24.5626C8.54752 24.5626 8.12695 24.1558 8.12695 23.6558V16.2798ZM5.31445 17.1867H6.25195V22.7489H5.31445C4.79752 22.7489 4.37695 22.3421 4.37695 21.842V18.0936C4.37695 17.5935 4.79752 17.1867 5.31445 17.1867ZM16.5645 30.0039C16.0475 30.0039 15.627 29.5971 15.627 29.097C15.627 28.597 16.0475 28.1901 16.5645 28.1901C17.0814 28.1901 17.502 28.597 17.502 29.097C17.502 29.5971 17.0814 30.0039 16.5645 30.0039ZM25.002 23.6558C25.002 24.1558 24.5814 24.5626 24.0645 24.5626C23.5475 24.5626 23.127 24.1558 23.127 23.6558V16.2798C23.127 15.7798 23.5475 15.373 24.0645 15.373C24.5814 15.373 25.002 15.7798 25.002 16.2798V23.6558ZM28.752 21.842C28.752 22.3421 28.3314 22.7489 27.8145 22.7489H26.877V17.1867H27.8145C28.3314 17.1867 28.752 17.5935 28.752 18.0936V21.842Z" fill="#BCED24"/>
</g>
<defs>
<clipPath id="clip0_834_146">
<rect width="32" height="30.9547" fill="white" transform="translate(0.564453 0.862946)"/>
</clipPath>
</defs>
</svg>
