<svg width="33" height="32" viewBox="0 0 33 32" fill="none" xmlns="http://www.w3.org/2000/svg">
<g clip-path="url(#clip0_834_113)">
<path d="M24.4948 19.3734C22.2706 19.3734 20.4612 21.1237 20.4612 23.2752C20.4612 25.4268 22.2706 27.1771 24.4948 27.1771C26.7194 27.1771 28.5284 25.4268 28.5284 23.2752C28.5284 21.1237 26.719 19.3734 24.4948 19.3734ZM24.4948 25.2262C23.3826 25.2262 22.478 24.3512 22.478 23.2752C22.478 22.1993 23.3826 21.3243 24.4948 21.3243C25.6071 21.3243 26.5116 22.1993 26.5116 23.2752C26.5116 24.3512 25.6071 25.2262 24.4948 25.2262Z" fill="#BCED24"/>
<path d="M10.7133 19.3734C8.48909 19.3734 6.67965 21.1237 6.67965 23.2752C6.67965 25.4268 8.48909 27.1771 10.7133 27.1771C12.9375 27.1771 14.7469 25.4268 14.7469 23.2752C14.7469 21.1237 12.9375 19.3734 10.7133 19.3734ZM10.7133 25.2262C9.60102 25.2262 8.69646 24.3512 8.69646 23.2752C8.69646 22.1993 9.60102 21.3243 10.7133 21.3243C11.8252 21.3243 12.7301 22.1993 12.7301 23.2752C12.7301 24.3512 11.8255 25.2262 10.7133 25.2262Z" fill="#BCED24"/>
<path d="M27.211 8.20505C27.0395 7.87567 26.691 7.66788 26.3098 7.66788H20.9988V9.61881H25.6879L28.4338 14.9019L30.2362 14.0253L27.211 8.20505Z" fill="#BCED24"/>
<path d="M21.4696 22.3324H13.8394V24.2833H21.4696V22.3324Z" fill="#BCED24"/>
<path d="M7.68788 22.3324H4.19213C3.63513 22.3324 3.18375 22.7691 3.18375 23.3078C3.18375 23.8466 3.63519 24.2833 4.19213 24.2833H7.68794C8.24494 24.2833 8.69632 23.8466 8.69632 23.3078C8.69632 22.769 8.24488 22.3324 7.68788 22.3324Z" fill="#BCED24"/>
<path d="M32.1148 16.369L30.1313 13.8978C29.9407 13.6598 29.6466 13.5206 29.335 13.5206H22.0072V6.69242C22.0072 6.15361 21.5558 5.71698 20.9989 5.71698H4.19213C3.63513 5.71698 3.18375 6.15367 3.18375 6.69242C3.18375 7.23116 3.63519 7.66785 4.19213 7.66785H19.9904V14.4961C19.9904 15.0349 20.4419 15.4715 20.9988 15.4715H28.8412L30.3097 17.3015V22.3323H27.5198C26.9628 22.3323 26.5114 22.769 26.5114 23.3077C26.5114 23.8465 26.9629 24.2832 27.5198 24.2832H31.3181C31.8751 24.2832 32.3265 23.8465 32.3265 23.3077V16.9673C32.3265 16.7508 32.2519 16.5401 32.1148 16.369Z" fill="#BCED24"/>
<path d="M7.62074 17.3901H2.98205C2.42505 17.3901 1.97368 17.8268 1.97368 18.3655C1.97368 18.9043 2.42512 19.341 2.98205 19.341H7.62068C8.17768 19.341 8.62905 18.9043 8.62905 18.3655C8.62912 17.8268 8.17768 17.3901 7.62074 17.3901Z" fill="#BCED24"/>
<path d="M9.9401 13.5531H1.33504C0.778098 13.5531 0.32666 13.9898 0.32666 14.5286C0.32666 15.0674 0.778098 15.5041 1.33504 15.5041H9.9401C10.4971 15.5041 10.9485 15.0674 10.9485 14.5286C10.9485 13.9899 10.4971 13.5531 9.9401 13.5531Z" fill="#BCED24"/>
<path d="M11.5871 9.71637H2.98205C2.42505 9.71637 1.97368 10.1531 1.97368 10.6918C1.97368 11.2306 2.42512 11.6672 2.98205 11.6672H11.5871C12.1441 11.6672 12.5955 11.2305 12.5955 10.6918C12.5956 10.1531 12.1441 9.71637 11.5871 9.71637Z" fill="#BCED24"/>
</g>
<defs>
<clipPath id="clip0_834_113">
<rect width="32" height="30.9547" fill="white" transform="translate(0.32666 0.969727)"/>
</clipPath>
</defs>
</svg>
