<svg width="204" height="43" viewBox="0 0 204 43" fill="none" xmlns="http://www.w3.org/2000/svg">
<g clip-path="url(#clip0_533_165)">
<path d="M121.437 16.9723C120.59 18.3311 120.141 19.8995 120.141 21.5V21.5001C120.141 23.1005 120.59 24.669 121.437 26.0278C122.229 27.2976 123.339 28.3369 124.655 29.0444V41.5679H0.5V29.181C1.88338 28.4983 3.05889 27.455 3.9003 26.159C4.80109 24.7714 5.28046 23.1534 5.28046 21.5C5.28046 19.8466 4.80109 18.2286 3.9003 16.8411C3.05889 15.545 1.88338 14.5018 0.5 13.8191V1.43213H124.655V13.9556C123.339 14.6632 122.229 15.7024 121.437 16.9723Z" fill="#BCED24" stroke="#BCED24"/>
<path d="M39.4568 20.0095V9.24951H47.8147V11.2669H42.1527V13.957H46.8709V15.9746H42.1527V20.0096L39.4568 20.0095Z" fill="#0D0033"/>
<path d="M52.8835 20.1442C51.3374 20.1442 50.1645 19.8169 49.3648 19.1623C48.5651 18.5078 48.1652 17.5932 48.1652 16.4184V12.8944C48.139 12.3701 48.2341 11.8468 48.4434 11.3652C48.6526 10.8835 48.9703 10.4564 49.3718 10.1171C50.1759 9.44917 51.351 9.11513 52.8968 9.11499C54.4423 9.11499 55.6129 9.44903 56.4085 10.1171C57.2038 10.7852 57.6015 11.711 57.6015 12.8944V16.4184C57.6015 17.5932 57.2015 18.5078 56.4016 19.1623C55.6019 19.8169 54.4292 20.1442 52.8835 20.1442ZM52.8835 18.1266C53.6293 18.1266 54.1528 17.9786 54.454 17.6827C54.7549 17.3868 54.9054 16.8757 54.9056 16.1494V13.1634C54.9056 12.4103 54.7551 11.8835 54.454 11.5831C54.1526 11.2828 53.6291 11.1326 52.8835 11.1326C52.1371 11.1326 51.6136 11.2827 51.3129 11.5831C51.0115 11.8836 50.861 12.4104 50.8614 13.1634V16.1494C50.8614 16.8758 51.0119 17.3869 51.3129 17.6827C51.6138 17.9786 52.1373 18.1265 52.8835 18.1266Z" fill="#0D0033"/>
<path d="M63.2362 20.1442C61.6904 20.1442 60.5176 19.8169 59.7178 19.1623C58.9178 18.5078 58.518 17.5932 58.5182 16.4184V12.8944C58.492 12.3702 58.5872 11.8469 58.7963 11.3653C59.0055 10.8836 59.3231 10.4565 59.7245 10.1171C60.5287 9.44917 61.7038 9.11513 63.2498 9.11499C64.7954 9.11499 65.9658 9.44903 66.7613 10.1171C67.5566 10.7852 67.9542 11.711 67.9542 12.8944V16.4184C67.9542 17.5932 67.5543 18.5078 66.7546 19.1623C65.9546 19.8169 64.7818 20.1442 63.2362 20.1442ZM63.2362 18.1266C63.9823 18.1266 64.5058 17.9786 64.8068 17.6827C65.1079 17.3868 65.2584 16.8757 65.2583 16.1494V13.1634C65.2583 12.4103 65.1078 11.8835 64.8068 11.5831C64.5056 11.2828 63.9821 11.1326 63.2362 11.1326C62.4902 11.1326 61.9667 11.2827 61.6657 11.5831C61.3645 11.8836 61.214 12.4104 61.2141 13.1634V16.1494C61.2141 16.8758 61.3646 17.3869 61.6657 17.6827C61.9668 17.9786 62.4904 18.1265 63.2362 18.1266Z" fill="#0D0033"/>
<path d="M71.2701 20.0096V11.2669H67.9V9.24951H77.3365V11.2669H73.9663V20.0096H71.2701Z" fill="#0D0033"/>
<path d="M77.8755 20.0095V9.24951H83.4563C84.7054 9.24951 85.6109 9.44899 86.1727 9.84795C86.7342 10.2471 87.015 10.8904 87.0153 11.7781V12.2353C87.0534 12.7037 86.9193 13.1699 86.638 13.5468C86.3049 13.8693 85.8728 14.0706 85.4111 14.1183V14.5084C85.9423 14.5349 86.4446 14.7579 86.8198 15.1339C87.1522 15.4991 87.3287 15.9792 87.312 16.4722V17.1716C87.312 18.158 87.0019 18.8776 86.3816 19.3304C85.7615 19.7832 84.773 20.0096 83.416 20.0096L77.8755 20.0095ZM80.5716 13.5535H83.052C83.397 13.5811 83.7427 13.5112 84.0497 13.3518C84.1534 13.2719 84.235 13.167 84.2868 13.047C84.3387 12.927 84.3591 12.7958 84.3461 12.6658V12.0202C84.3591 11.8901 84.3387 11.7589 84.2868 11.6389C84.235 11.5189 84.1534 11.4141 84.0497 11.3342C83.7427 11.1748 83.397 11.1049 83.052 11.1325H80.5716V13.5535ZM80.5716 18.1265H82.9981C83.4311 18.1624 83.8655 18.0762 84.2519 17.8777C84.378 17.782 84.4777 17.6559 84.5413 17.5112C84.605 17.3664 84.6307 17.2079 84.6159 17.0505V16.351C84.6306 16.1937 84.605 16.0352 84.5413 15.8905C84.4776 15.7457 84.378 15.6196 84.2519 15.524C83.8655 15.3256 83.4311 15.2393 82.9981 15.2751H80.5716V18.1265Z" fill="#0D0033"/>
<path d="M94.5239 20.0095L93.8766 17.5886H90.4257L89.7787 20.0095H87.2847L90.5066 9.24951H94.0656L97.2604 20.0095H94.5239ZM93.351 15.571L92.1648 11.0921L90.9649 15.571H93.351Z" fill="#0D0033"/>
<path d="M97.5299 20.0095V9.24951H100.226V17.992H104.944V20.0096L97.5299 20.0095Z" fill="#0D0033"/>
<path d="M105.483 20.0095V9.24951H108.179V17.992H112.898V20.0096L105.483 20.0095Z" fill="#0D0033"/>
<path d="M42.8267 33.218V24.4754H39.4568V22.458H48.893V24.4754H45.5229V33.218H42.8267Z" fill="#0D0033"/>
<path d="M49.8531 33.218V31.2005H52.5492V24.4754H49.8531V22.458H57.9412V24.4754H55.2454V31.2005H57.9412V33.218H49.8531Z" fill="#0D0033"/>
<path d="M63.9699 33.3526C62.2264 33.3526 60.9593 33.0254 60.1687 32.3708C59.3776 31.7163 58.9821 30.8017 58.9824 29.6269V26.1029C58.9824 24.9194 59.3801 23.9936 60.1753 23.3256C60.9706 22.6577 62.24 22.3236 63.9835 22.3235C65.6371 22.3235 66.8414 22.6306 67.5964 23.2449C68.3511 23.8591 68.7599 24.8567 68.823 26.2375L66.1268 26.3719C66.0637 25.6099 65.8773 25.0809 65.5676 24.7848C65.2573 24.4889 64.7247 24.341 63.9699 24.341C63.1073 24.341 62.5097 24.489 62.1771 24.7848C61.8446 25.0807 61.6783 25.6142 61.6783 26.3854V29.3579C61.6783 30.1023 61.8446 30.6179 62.1771 30.9046C62.5094 31.1918 63.107 31.3353 63.9699 31.3351C64.7251 31.3351 65.2577 31.1916 65.5676 30.9046C65.8774 30.6178 66.0638 30.1022 66.1268 29.3579L68.823 29.4925C68.7598 30.8555 68.3487 31.8396 67.5895 32.4447C66.8301 33.05 65.6235 33.3526 63.9699 33.3526Z" fill="#0D0033"/>
<path d="M72.7486 28.7123V33.218H70.0525V22.458H72.7486V26.6947H73.2881L76.3346 22.458H79.2866L75.5527 27.4345L79.2462 33.218H76.1322L73.3284 28.7122L72.7486 28.7123Z" fill="#0D0033"/>
<path d="M80.7823 33.5193V22.7593H88.8705V24.7767H83.4782V26.7943H88.1965V28.8118H83.4782V31.5018H88.8705V33.5193H80.7823Z" fill="#0D0033"/>
<path d="M93.8724 33.218V24.4754H90.5022V22.458H99.9384V24.4754H96.5685V33.218H93.8724Z" fill="#0D0033"/>
<path d="M105.495 33.3526C104.657 33.351 103.822 33.2356 103.015 33.0096C102.234 32.7992 101.479 32.5037 100.763 32.1286L101.37 30.1246C102.058 30.4959 102.783 30.7934 103.534 31.0123C104.298 31.2307 105.091 31.3394 105.886 31.3351C106.371 31.3734 106.855 31.2555 107.268 30.9988C107.407 30.8972 107.52 30.7634 107.596 30.6088C107.673 30.4542 107.71 30.2834 107.706 30.1111C107.706 29.7883 107.506 29.5485 107.106 29.3915C106.213 29.1211 105.3 28.921 104.376 28.793C103.163 28.5959 102.303 28.2731 101.795 27.8246C101.287 27.3763 101.033 26.7082 101.033 25.8205C101.026 25.35 101.121 24.8835 101.313 24.4537C101.506 24.0239 101.789 23.6412 102.145 23.3323C102.887 22.6597 104.003 22.3235 105.495 22.3235C106.277 22.3305 107.054 22.4529 107.8 22.6867C108.472 22.875 109.119 23.1414 109.728 23.4803L109.256 25.3902C108.625 25.0982 107.974 24.851 107.308 24.6504C106.712 24.4677 106.092 24.3725 105.468 24.368C105.018 24.3423 104.57 24.4425 104.174 24.6571C104.028 24.745 103.908 24.8708 103.827 25.0211C103.746 25.1714 103.708 25.3408 103.716 25.5112C103.716 25.834 103.916 26.0761 104.316 26.2375C105.212 26.5166 106.129 26.7235 107.059 26.8562C108.272 27.0804 109.133 27.4278 109.641 27.8985C110.148 28.3694 110.402 29.0531 110.402 29.9497C110.42 30.4435 110.311 30.9337 110.084 31.373C109.857 31.8123 109.521 32.1861 109.108 32.4582C108.245 33.0545 107.041 33.3527 105.495 33.3526Z" fill="#0D0033"/>
<path d="M133.482 34.6243V8.37573H139.362V30.2932H147.856V34.6243H133.482Z" fill="#0D0033"/>
<path d="M149.46 34.6243V30.2932H154.538V12.7068H149.46V8.37573H165.709V12.7068H160.631V30.2932H165.709V34.6243H149.46Z" fill="#0D0033"/>
<path d="M181.127 34.6243H172.891L167.668 8.37573H173.694L177.244 29.3089L180.826 8.37573H186.417L181.127 34.6243Z" fill="#0D0033"/>
<path d="M188.376 34.6243V8.37573H204V12.7068H194.309V18.4157H202.78V22.7468H194.309V30.2932H204V34.6243H188.376Z" fill="#0D0033"/>
</g>
<g clip-path="url(#clip1_533_165)">
<rect x="11.0192" y="9.32715" width="23.7341" height="23.5062" rx="11.7531" fill="white" fill-opacity="0.4"/>
<path d="M34.3991 21.3153C34.4006 21.2371 34.4019 21.1588 34.4019 21.0802C34.4019 17.9411 33.1814 14.9898 30.9651 12.7699C28.7486 10.5498 25.8014 9.32715 22.6665 9.32715C19.5316 9.32715 16.5845 10.5498 14.3679 12.7699C12.1516 14.9898 10.9311 17.9411 10.9311 21.0802C10.9311 21.0901 10.9314 21.0999 10.9315 21.1097V21.1108C10.9394 24.2385 12.1589 27.1779 14.3679 29.3905C16.5845 31.6106 19.5316 32.8333 22.6665 32.8333C25.8014 32.8333 28.7486 31.6106 30.9651 29.3905C33.0897 27.2626 34.2984 24.4623 34.3949 21.4689C34.4021 21.4178 34.4033 21.3663 34.3991 21.3153ZM31.2433 26.9041H27.4687L25.6775 24.1602L26.862 20.5148L30.0631 19.5699L33.0065 21.7083C32.8953 23.5865 32.2864 25.3696 31.2433 26.9041ZM17.5987 26.9041H14.0897C12.9956 25.2945 12.3792 23.4116 12.3137 21.4322L15.3448 19.23L18.4436 20.4759L19.6333 24.1375L17.5987 26.9041ZM13.6927 15.8884L14.4395 18.1868L12.4027 19.6666C12.5838 18.3264 13.0219 17.0475 13.6927 15.8884ZM20.8967 23.5727L19.8075 20.2204L22.6591 18.1485L25.5108 20.2204L24.4215 23.5727H20.8967ZM31.0022 18.5512L31.7841 16.1449C32.4235 17.3263 32.8262 18.6242 32.968 19.9795L31.0022 18.5512ZM30.8158 14.6719L29.651 18.2567L26.4499 19.2017L23.3453 16.9461L23.3266 13.6277L26.4001 11.3947C27.7312 11.909 28.9521 12.7014 29.9912 13.7422C30.2865 14.0379 30.5613 14.3485 30.8158 14.6719ZM24.7288 10.9079L22.6366 12.428L20.5578 10.9177C21.2441 10.7763 21.9497 10.7033 22.6665 10.7033C23.3672 10.7033 24.0572 10.7728 24.7288 10.9079ZM18.8944 11.4101L21.9505 13.6305L21.9691 16.9489L18.9022 19.1772L15.8034 17.9312L14.6792 14.4713C14.8875 14.2197 15.1081 13.9762 15.3418 13.7422C16.3708 12.7115 17.5783 11.9248 18.8944 11.4101ZM15.2073 28.2802H17.4469L18.1423 30.4204C17.1173 29.9212 16.1714 29.2492 15.3418 28.4183C15.2963 28.3727 15.2518 28.3265 15.2073 28.2802ZM19.7953 31.0548L18.7102 27.7154L20.7449 24.9488H24.5489L26.34 27.6927L25.2196 31.1413C24.395 31.3497 23.539 31.4573 22.6665 31.4573C21.6812 31.4572 20.717 31.3196 19.7953 31.0548ZM26.8489 30.5798L27.5961 28.2802H30.1258C30.0813 28.3265 30.0367 28.3727 29.9913 28.4183C29.0701 29.3409 28.0059 30.0682 26.8489 30.5798Z" fill="#0D0033"/>
</g>
<defs>
<clipPath id="clip0_533_165">
<rect width="204" height="41.1358" fill="white" transform="translate(0 0.932129)"/>
</clipPath>
<clipPath id="clip1_533_165">
<rect x="11.0192" y="9.32715" width="23.7341" height="23.5062" rx="11.7531" fill="white"/>
</clipPath>
</defs>
</svg>
