<svg width="199" height="40" viewBox="0 0 199 40" fill="none" xmlns="http://www.w3.org/2000/svg">
<g clip-path="url(#clip0_658_373)">
<path d="M118.073 15.59C117.248 16.9135 116.81 18.4411 116.811 20V20.0001C116.81 21.5589 117.248 23.0866 118.073 24.4101C118.843 25.6446 119.921 26.6553 121.2 27.3444V39.5001H0.5V27.4775C1.84407 26.8125 2.98622 25.7978 3.80419 24.5379C4.68157 23.1864 5.14847 21.6105 5.14847 20C5.14847 18.3896 4.68157 16.8137 3.80419 15.4622C2.98622 14.2022 1.84407 13.1876 0.5 12.5226V0.5H121.2V12.6557C119.921 13.3448 118.843 14.3555 118.073 15.59Z" fill="#BCED24" stroke="#BCED24"/>
<path d="M38.3674 18.5507V8.08777H46.4946V10.0495H40.9889V12.6653H45.5768V14.6272H40.9889V18.5507L38.3674 18.5507Z" fill="#0D0033"/>
<path d="M51.4234 18.6816C49.9201 18.6816 48.7796 18.3633 48.0019 17.7268C47.2243 17.0904 46.8355 16.201 46.8354 15.0587V11.632C46.8099 11.1222 46.9025 10.6133 47.1059 10.145C47.3094 9.67661 47.6183 9.26133 48.0087 8.93136C48.7906 8.28186 49.9332 7.95704 51.4364 7.95691C52.9393 7.95691 54.0775 8.28173 54.8512 8.93136C55.6245 9.581 56.0112 10.4812 56.0112 11.632V15.0587C56.0112 16.2011 55.6223 17.0904 54.8444 17.7268C54.0668 18.3634 52.9265 18.6816 51.4234 18.6816ZM51.4234 16.7197C52.1486 16.7197 52.6577 16.5758 52.9506 16.2881C53.2432 16.0003 53.3896 15.5033 53.3897 14.7971V11.8936C53.3897 11.1612 53.2434 10.649 52.9506 10.3569C52.6575 10.0649 52.1484 9.91881 51.4234 9.91877C50.6977 9.91877 50.1887 10.0648 49.8963 10.3569C49.6032 10.6491 49.4568 11.1613 49.4572 11.8936V14.7971C49.4572 15.5034 49.6035 16.0004 49.8963 16.2881C50.1888 16.5758 50.6979 16.7197 51.4234 16.7197Z" fill="#0D0033"/>
<path d="M61.4904 18.6816C59.9873 18.6816 58.8468 18.3633 58.0691 17.7268C57.2912 17.0904 56.9024 16.201 56.9026 15.0587V11.632C56.8771 11.1222 56.9697 10.6134 57.1731 10.145C57.3765 9.67669 57.6853 9.26139 58.0756 8.93136C58.8576 8.28186 60.0002 7.95704 61.5036 7.95691C63.0064 7.95691 64.1446 8.28173 64.9181 8.93136C65.6914 9.581 66.0781 10.4812 66.0781 11.632V15.0587C66.0781 16.2011 65.6893 17.0904 64.9116 17.7268C64.1337 18.3634 62.9933 18.6816 61.4904 18.6816ZM61.4904 16.7197C62.2158 16.7197 62.7249 16.5758 63.0175 16.2881C63.3104 16.0003 63.4567 15.5033 63.4566 14.7971V11.8936C63.4566 11.1612 63.3103 10.649 63.0175 10.3569C62.7247 10.0649 62.2156 9.91881 61.4904 9.91877C60.7649 9.91877 60.2559 10.0648 59.9632 10.3569C59.6704 10.6491 59.524 11.1613 59.5241 11.8936V14.7971C59.5241 15.5034 59.6705 16.0004 59.9632 16.2881C60.256 16.5758 60.7651 16.7197 61.4904 16.7197Z" fill="#0D0033"/>
<path d="M69.3025 18.5507V10.0495H66.0254V8.08777H75.2014V10.0495H71.9242V18.5507H69.3025Z" fill="#0D0033"/>
<path d="M75.7254 18.5507V8.08777H81.1521C82.3667 8.08777 83.2472 8.28174 83.7936 8.66969C84.3395 9.05777 84.6126 9.6834 84.6129 10.5466V10.9912C84.6499 11.4466 84.5195 11.8999 84.246 12.2664C83.9221 12.58 83.5019 12.7757 83.053 12.8222V13.2015C83.5695 13.2272 84.0579 13.444 84.4228 13.8097C84.7459 14.1648 84.9176 14.6316 84.9014 15.111V15.7911C84.9014 16.7503 84.5998 17.4501 83.9967 17.8903C83.3937 18.3306 82.4324 18.5507 81.1129 18.5507L75.7254 18.5507ZM78.3471 12.2729H80.759C81.0944 12.2997 81.4306 12.2317 81.7292 12.0768C81.83 11.9991 81.9093 11.8971 81.9597 11.7804C82.0102 11.6637 82.03 11.5362 82.0174 11.4097V10.7819C82.03 10.6555 82.0102 10.5279 81.9597 10.4112C81.9093 10.2945 81.83 10.1926 81.7292 10.1149C81.4306 9.9599 81.0944 9.89192 80.759 9.91875H78.3471V12.2729ZM78.3471 16.7197H80.7065C81.1276 16.7546 81.5501 16.6707 81.9257 16.4777C82.0484 16.3847 82.1453 16.2621 82.2072 16.1213C82.2692 15.9806 82.2941 15.8264 82.2797 15.6734V14.9932C82.294 14.8402 82.2691 14.6861 82.2072 14.5454C82.1452 14.4046 82.0484 14.282 81.9257 14.189C81.5501 13.9961 81.1276 13.9122 80.7065 13.947H78.3471V16.7197Z" fill="#0D0033"/>
<path d="M91.9142 18.5507L91.2847 16.1966H87.9292L87.3 18.5507H84.8748L88.0078 8.08777H91.4686L94.5751 18.5507H91.9142ZM90.7737 14.2348L89.6202 9.87953L88.4534 14.2348H90.7737Z" fill="#0D0033"/>
<path d="M94.8372 18.5507V8.08777H97.4589V16.5889H102.047V18.5507L94.8372 18.5507Z" fill="#0D0033"/>
<path d="M102.571 18.5507V8.08777H105.193V16.5889H109.781V18.5507L102.571 18.5507Z" fill="#0D0033"/>
<path d="M41.6443 31.3945V22.8932H38.3674V20.9315H47.5431V22.8932H44.266V31.3945H41.6443Z" fill="#0D0033"/>
<path d="M48.4768 31.3945V29.4326H51.0985V22.8932H48.4768V20.9315H56.3417V22.8932H53.7202V29.4326H56.3417V31.3945H48.4768Z" fill="#0D0033"/>
<path d="M62.2035 31.5253C60.5082 31.5253 59.2761 31.2071 58.5073 30.5705C57.738 29.9341 57.3535 29.0448 57.3538 27.9024V24.4758C57.3538 23.3249 57.7405 22.4247 58.5138 21.7751C59.2871 21.1256 60.5215 20.8008 62.2168 20.8007C63.8248 20.8007 64.9959 21.0993 65.73 21.6966C66.4638 22.2939 66.8614 23.2639 66.9227 24.6066L64.3009 24.7373C64.2396 23.9964 64.0583 23.4819 63.7572 23.194C63.4554 22.9063 62.9376 22.7625 62.2035 22.7625C61.3648 22.7625 60.7837 22.9064 60.4603 23.194C60.1369 23.4818 59.9752 24.0005 59.9752 24.7504V27.6409C59.9752 28.3647 60.1369 28.866 60.4603 29.1449C60.7835 29.4241 61.3645 29.5636 62.2035 29.5635C62.9379 29.5635 63.4558 29.4239 63.7572 29.1449C64.0584 28.8659 64.2397 28.3646 64.3009 27.6409L66.9227 27.7717C66.8613 29.0971 66.4615 30.0541 65.7232 30.6424C64.9848 31.231 63.8116 31.5253 62.2035 31.5253Z" fill="#0D0033"/>
<path d="M70.7401 27.0131V31.3945H68.1183V20.9315H70.7401V25.0512H71.2646L74.227 20.9315H77.0975L73.4667 25.7706L77.0583 31.3945H74.0302L71.3038 27.0131L70.7401 27.0131Z" fill="#0D0033"/>
<path d="M78.552 31.6874V21.2245H86.4168V23.1862H81.1734V25.1481H85.7614V27.1099H81.1734V29.7256H86.4168V31.6874H78.552Z" fill="#0D0033"/>
<path d="M91.2805 31.3945V22.8932H88.0034V20.9315H97.1791V22.8932H93.9022V31.3945H91.2805Z" fill="#0D0033"/>
<path d="M102.582 31.5253C101.767 31.5237 100.956 31.4115 100.171 31.1917C99.4116 30.9871 98.6775 30.6998 97.9815 30.335L98.5715 28.3864C99.2402 28.7474 99.9454 29.0367 100.675 29.2496C101.419 29.462 102.189 29.5676 102.963 29.5635C103.434 29.6007 103.905 29.4861 104.306 29.2365C104.442 29.1377 104.552 29.0076 104.626 28.8572C104.7 28.7069 104.737 28.5408 104.732 28.3733C104.732 28.0594 104.538 27.8261 104.149 27.6735C103.281 27.4106 102.393 27.216 101.494 27.0916C100.315 26.8999 99.4782 26.586 98.9841 26.1499C98.4904 25.7139 98.2436 25.0643 98.2438 24.2011C98.2365 23.7436 98.3295 23.29 98.5163 22.8721C98.7031 22.4541 98.9791 22.082 99.3251 21.7816C100.046 21.1276 101.132 20.8007 102.582 20.8007C103.343 20.8075 104.098 20.9265 104.824 21.1538C105.477 21.337 106.106 21.596 106.698 21.9255L106.24 23.7827C105.626 23.4988 104.993 23.2584 104.345 23.0633C103.766 22.8857 103.163 22.7931 102.556 22.7887C102.119 22.7638 101.683 22.8611 101.298 23.0698C101.156 23.1553 101.039 23.2776 100.961 23.4238C100.882 23.57 100.845 23.7346 100.852 23.9003C100.852 24.2142 101.047 24.4496 101.435 24.6066C102.307 24.878 103.199 25.0792 104.103 25.2082C105.283 25.4262 106.12 25.7641 106.613 26.2218C107.107 26.6796 107.354 27.3445 107.354 28.2163C107.372 28.6965 107.265 29.1731 107.045 29.6003C106.824 30.0275 106.497 30.3909 106.095 30.6555C105.257 31.2354 104.086 31.5254 102.582 31.5253Z" fill="#0D0033"/>
<path d="M129.796 32.7619V7.23804H135.514V28.5504H143.773V32.7619H129.796Z" fill="white"/>
<path d="M145.333 32.7619V28.5504H150.271V11.4495H145.333V7.23804H161.134V11.4495H156.196V28.5504H161.134V32.7619H145.333Z" fill="white"/>
<path d="M176.126 32.7619H168.117L163.039 7.23804H168.899L172.35 27.5933L175.833 7.23804H181.27L176.126 32.7619Z" fill="white"/>
<path d="M183.175 32.7619V7.23804H198.368V11.4495H188.944V17.0008H197.182V21.2123H188.944V28.5504H198.368V32.7619H183.175Z" fill="white"/>
</g>
<g clip-path="url(#clip1_658_373)">
<rect x="10.7151" y="8.16321" width="23.0788" height="22.8572" rx="11.4286" fill="white" fill-opacity="0.4"/>
<path d="M33.4489 19.8204C33.4503 19.7443 33.4516 19.6682 33.4516 19.5918C33.4516 16.5393 32.2648 13.6695 30.1097 11.511C27.9544 9.35213 25.0886 8.16321 22.0403 8.16321C18.9919 8.16321 16.1261 9.35213 13.9708 11.511C11.8157 13.6695 10.6288 16.5393 10.6288 19.5918C10.6288 19.6014 10.6292 19.6109 10.6292 19.6205V19.6215C10.6369 22.6629 11.8227 25.5211 13.9708 27.6726C16.1261 29.8314 18.9919 31.0203 22.0403 31.0203C25.0886 31.0203 27.9544 29.8314 30.1097 27.6726C32.1756 25.6034 33.351 22.8804 33.4448 19.9697C33.4519 19.92 33.453 19.87 33.4489 19.8204ZM30.3803 25.2549H26.7099L24.9681 22.5868L26.1199 19.042L29.2326 18.1231L32.0948 20.2026C31.9866 22.0289 31.3946 23.7627 30.3803 25.2549ZM17.1124 25.2549H13.7003C12.6363 23.6897 12.0369 21.8587 11.9733 19.9341L14.9207 17.7927L17.9339 19.0042L19.0908 22.5646L17.1124 25.2549ZM13.3142 14.5433L14.0404 16.7783L12.0598 18.2172C12.2359 16.914 12.6619 15.6704 13.3142 14.5433ZM20.3194 22.0154L19.2602 18.7557L22.0331 16.741L24.806 18.7557L23.7468 22.0154H20.3194ZM30.1458 17.1326L30.9061 14.7927C31.5279 15.9415 31.9195 17.2036 32.0574 18.5214L30.1458 17.1326ZM29.9645 13.3604L28.8319 16.8463L25.7191 17.7651L22.7003 15.5718L22.6822 12.345L25.6707 10.1736C26.9651 10.6737 28.1523 11.4443 29.1627 12.4564C29.4498 12.7439 29.717 13.0459 29.9645 13.3604ZM24.0457 9.70035L22.0111 11.1785L19.9898 9.70985C20.6571 9.57238 21.3432 9.50133 22.0403 9.50133C22.7216 9.50133 23.3925 9.5689 24.0457 9.70035ZM18.3723 10.1887L21.344 12.3478L21.3621 15.5745L18.3798 17.7413L15.3666 16.5297L14.2735 13.1653C14.476 12.9207 14.6906 12.6839 14.9177 12.4564C15.9184 11.4541 17.0926 10.6891 18.3723 10.1887ZM14.787 26.593H16.9647L17.6409 28.6741C16.6443 28.1887 15.7245 27.5353 14.9178 26.7272C14.8735 26.6829 14.8303 26.638 14.787 26.593ZM19.2483 29.291L18.1932 26.0438L20.1717 23.3536H23.8706L25.6124 26.0217L24.5228 29.375C23.721 29.5777 22.8887 29.6823 22.0403 29.6823C21.0821 29.6823 20.1446 29.5485 19.2483 29.291ZM26.1072 28.8291L26.8337 26.593H29.2936C29.2503 26.638 29.207 26.6829 29.1628 26.7272C28.267 27.6244 27.2322 28.3316 26.1072 28.8291Z" fill="#0D0033"/>
</g>
<defs>
<clipPath id="clip0_658_373">
<rect width="198.368" height="40.0001" fill="white"/>
</clipPath>
<clipPath id="clip1_658_373">
<rect x="10.7151" y="8.16321" width="23.0788" height="22.8572" rx="11.4286" fill="white"/>
</clipPath>
</defs>
</svg>
