<svg width="43" height="30" viewBox="0 0 43 30" fill="none" xmlns="http://www.w3.org/2000/svg">
<path fill-rule="evenodd" clip-rule="evenodd" d="M0.195862 1.92783C0.195862 0.863121 1.05898 0 2.1237 0H40.6804C41.7451 0 42.6082 0.863121 42.6082 1.92783V27.6323C42.6082 28.697 41.7451 29.5601 40.6804 29.5601H2.1237C1.05898 29.5601 0.195862 28.697 0.195862 27.6323V1.92783Z" fill="white"/>
<path fill-rule="evenodd" clip-rule="evenodd" d="M40.6804 0.642612H2.1237C1.41389 0.642612 0.838473 1.21803 0.838473 1.92783V27.6323C0.838473 28.3421 1.41389 28.9175 2.1237 28.9175H40.6804C41.3902 28.9175 41.9656 28.3421 41.9656 27.6323V1.92783C41.9656 1.21803 41.3902 0.642612 40.6804 0.642612ZM2.1237 0C1.05898 0 0.195862 0.863121 0.195862 1.92783V27.6323C0.195862 28.697 1.05898 29.5601 2.1237 29.5601H40.6804C41.7451 29.5601 42.6082 28.697 42.6082 27.6323V1.92783C42.6082 0.863121 41.7451 0 40.6804 0H2.1237Z" fill="#E6E7E8"/>
<path d="M18.017 8.97888H24.8788V21.4372H18.017V8.97888Z" fill="#7673C0"/>
<path fill-rule="evenodd" clip-rule="evenodd" d="M18.4547 15.2073C18.4528 12.7766 19.5573 10.48 21.4499 8.97923C18.2347 6.4264 13.6174 6.79824 10.843 9.83343C8.06865 12.8686 8.06865 17.5481 10.843 20.5833C13.6174 23.6185 18.2347 23.9904 21.4499 21.4375C19.5567 19.9363 18.4522 17.6388 18.4547 15.2073Z" fill="#EB001B"/>
<path fill-rule="evenodd" clip-rule="evenodd" d="M33.3896 19.9132V20.4185H33.3351V19.9132H33.2328V19.8086H33.492V19.9132H33.3896ZM33.8928 19.8086V20.4185L33.8362 20.4229V19.9611L33.7512 20.3575H33.6924L33.6074 19.9611V20.4185H33.5508V19.8086H33.6314L33.7229 20.2443L33.8144 19.8086H33.8928Z" fill="#00A1DF"/>
<path fill-rule="evenodd" clip-rule="evenodd" d="M34.1367 15.2069C34.1366 18.2403 32.4222 21.0073 29.7216 22.3328C27.0209 23.6584 23.8082 23.3097 21.4478 21.435C23.3397 19.9329 24.4442 17.6367 24.4442 15.2058C24.4442 12.775 23.3397 10.4787 21.4478 8.97667C23.8085 7.10165 27.0217 6.75317 29.7226 8.07927C32.4234 9.40538 34.1375 12.1732 34.1367 15.2069Z" fill="#00A1DF"/>
</svg>
