<svg width="43" height="30" viewBox="0 0 43 30" fill="none" xmlns="http://www.w3.org/2000/svg">
<path fill-rule="evenodd" clip-rule="evenodd" d="M0 1.92783C0 0.863121 0.863121 0 1.92783 0H40.4845C41.5492 0 42.4124 0.863121 42.4124 1.92783V27.6323C42.4124 28.697 41.5492 29.5601 40.4845 29.5601H1.92784C0.863122 29.5601 0 28.697 0 27.6323V1.92783Z" fill="white"/>
<path fill-rule="evenodd" clip-rule="evenodd" d="M40.4845 0.642612H1.92783C1.21803 0.642612 0.642612 1.21803 0.642612 1.92783V27.6323C0.642612 28.3421 1.21803 28.9175 1.92784 28.9175H40.4845C41.1943 28.9175 41.7698 28.3421 41.7698 27.6323V1.92783C41.7698 1.21803 41.1943 0.642612 40.4845 0.642612ZM1.92783 0C0.863121 0 0 0.863121 0 1.92783V27.6323C0 28.697 0.863122 29.5601 1.92784 29.5601H40.4845C41.5492 29.5601 42.4124 28.697 42.4124 27.6323V1.92783C42.4124 0.863121 41.5492 0 40.4845 0H1.92783Z" fill="#E6E7E8"/>
<g opacity="0.01">
<path d="M8.35394 6.42615H33.9396V23.1148H8.35394V6.42615Z" fill="white"/>
</g>
<path d="M17.7729 9.33386H24.5223V20.2055H17.7729V9.33386Z" fill="#FF5F00"/>
<path fill-rule="evenodd" clip-rule="evenodd" d="M18.4682 14.7706C18.4665 12.6494 19.4538 10.6453 21.1457 9.33568C18.2715 7.10797 14.1439 7.43246 11.6638 10.0811C9.18365 12.7297 9.18365 16.8133 11.6638 19.4619C14.1439 22.1106 18.2715 22.4351 21.1457 20.2073C19.4533 18.8973 18.4659 16.8924 18.4682 14.7706Z" fill="#EB001B"/>
<path fill-rule="evenodd" clip-rule="evenodd" d="M31.8326 18.8797V19.3315H31.7854V18.8797H31.6848V18.7863H31.9397V18.8797H31.8326ZM32.3274 18.7863V19.3315H32.2738V18.9187L32.1903 19.2731H32.1324L32.0489 18.9187V19.3315H31.9932V18.7863H32.0703L32.1603 19.1757L32.2503 18.7863H32.3274Z" fill="#F79E1B"/>
<path fill-rule="evenodd" clip-rule="evenodd" d="M32.4888 14.7707C32.4887 17.4177 30.9561 19.8323 28.5419 20.989C26.1277 22.1458 23.2557 21.8415 21.1457 20.2055C22.8369 18.8948 23.8243 16.8909 23.8243 14.7697C23.8243 12.6484 22.8369 10.6446 21.1457 9.33387C23.2557 7.69786 26.1277 7.39361 28.5419 8.55034C30.9561 9.70708 32.4887 12.1217 32.4888 14.7687V14.7707Z" fill="#F79E1B"/>
</svg>
