<svg width="33" height="25" viewBox="0 0 33 25" fill="none" xmlns="http://www.w3.org/2000/svg">
<path d="M29.9268 0.956512H8.61426C7.06345 0.956512 5.80176 2.17699 5.80176 3.67714V5.79318H3.55176C2.00095 5.79318 0.739258 7.01366 0.739258 8.51381V21.331C0.739258 22.8311 2.00095 24.0516 3.55176 24.0516H24.8643C26.4151 24.0516 27.6768 22.8311 27.6768 21.331V19.2149H29.9268C31.4776 19.2149 32.7393 17.9945 32.7393 16.4943V3.67714C32.7393 2.17699 31.4776 0.956512 29.9268 0.956512ZM7.67676 3.67714C7.67676 3.17709 8.09732 2.77026 8.61426 2.77026H10.8018V5.79318C9.96482 5.79318 8.90751 5.79318 7.67676 5.79318V3.67714ZM25.8018 11.513C23.7607 11.1418 22.1476 9.58133 21.7638 7.60694H24.8643C25.3812 7.60694 25.8018 8.01376 25.8018 8.51381V11.513ZM19.8653 7.60694C20.2828 10.5832 22.7249 12.9456 25.8018 13.3495V16.4954C22.7249 16.8993 20.2828 19.2616 19.8653 22.2379H8.61382C8.18851 19.1758 5.62488 16.8331 2.61426 16.4782V13.3667C5.61145 13.0135 8.18682 10.6818 8.61388 7.60694H19.8653ZM2.61426 8.51381C2.61426 8.01376 3.03482 7.60694 3.55176 7.60694H6.71551C6.32088 9.65158 4.60401 11.2055 2.61426 11.5349V8.51381ZM3.55176 22.2379C3.03482 22.2379 2.61426 21.831 2.61426 21.331V18.3099C4.5987 18.6384 6.31976 20.1878 6.71545 22.2379H3.55176ZM25.8018 21.331C25.8018 21.831 25.3812 22.2379 24.8643 22.2379H21.7638C22.1476 20.2635 23.7607 18.703 25.8018 18.3318V21.331ZM30.8643 16.4943C30.8643 16.9944 30.4437 17.4012 29.9268 17.4012H27.6768C27.6768 16.4205 27.6768 9.48381 27.6768 8.51381C27.6768 7.01366 26.4151 5.79318 24.8643 5.79318C24.4245 5.79318 13.2783 5.79318 12.6768 5.79318V2.77026H29.9268C30.4437 2.77026 30.8643 3.17709 30.8643 3.67714V16.4943Z" fill="#BCED24"/>
<path d="M11.7589 14.0232H11.5009C10.9832 14.0232 10.5634 14.4292 10.5634 14.9301C10.5634 15.4309 10.9832 15.8369 11.5009 15.8369H12.4532C12.5282 16.7321 12.3274 16.9033 11.1859 18.2916C10.7011 18.8811 11.1306 19.7562 11.9112 19.7629C18.0587 19.8155 17.1397 19.8085 17.2394 19.8085C17.7532 19.8085 18.1721 19.4077 18.1767 18.9096C18.1812 18.4088 17.7652 17.9992 17.2475 17.9948L13.7809 17.9651C14.2772 17.1818 14.3769 16.6085 14.33 15.8369H15.2369C15.7546 15.8369 16.1744 15.4309 16.1744 14.9301C16.1744 14.4292 15.7546 14.0232 15.2369 14.0232H13.8636C13.5939 13.6017 13.2857 12.9857 13.2857 12.4887C13.2857 12.1948 13.3907 11.9652 13.7189 11.786C14.2656 11.4874 15.0863 11.5379 15.4809 11.77C15.8376 11.9797 16.1143 12.2733 16.186 12.5178C16.3274 12.9996 16.8456 13.2794 17.3438 13.1427C17.8419 13.006 18.1311 12.5045 17.9897 12.0227C17.7871 11.3318 17.2277 10.6748 16.4549 10.2203C15.4273 9.61588 13.8888 9.6102 12.7969 10.2067C11.5836 10.8695 10.9905 12.2155 11.7589 14.0232Z" fill="#BCED24"/>
</svg>
