<svg width="350" height="89" viewBox="0 0 350 89" fill="none" xmlns="http://www.w3.org/2000/svg">
<rect width="350" height="89" fill="#0D0033"/>
<path d="M57.2327 65.0152C57.0539 65.5513 56.4717 66.8636 55.0668 66.8636C53.4708 66.8636 52.9138 65.1347 52.8869 65.0638L52.8412 64.8979C52.8412 64.8979 54.2168 65.0124 54.9738 65.0124C55.7308 65.0124 57.0248 64.9388 57.2366 64.8979L57.2327 65.0152Z" fill="#1D1D1B"/>
<path d="M61.4221 64.1626L61.7514 64.2066C61.3605 65.2263 60.6581 66.3696 59.2776 66.3696C58.8143 66.3899 58.3546 66.2792 57.9514 66.0502C57.5481 65.8212 57.2175 65.4831 56.9976 65.0748L56.7673 64.9333C58.3429 64.8523 59.9044 64.5938 61.4221 64.1626Z" fill="#1D1D1B"/>
<path d="M48.7592 64.1626L48.4297 64.2066C48.8204 65.2263 49.5232 66.3696 50.9038 66.3696C51.3748 66.3773 51.8396 66.2619 52.2522 66.0348C52.6649 65.8077 53.0111 65.4768 53.2566 65.0748L53.414 64.9333C51.8384 64.8523 50.2769 64.5938 48.7592 64.1626Z" fill="#1D1D1B"/>
<path d="M56.1862 65.1216C56.1286 65.2316 56.037 65.32 55.9251 65.3738C55.8132 65.4275 55.6869 65.4437 55.565 65.4199C55.4826 65.4195 55.4032 65.451 55.3434 65.5078C55.2837 65.5646 55.2482 65.6423 55.2444 65.7247C55.2474 65.766 55.2587 65.8064 55.2778 65.8432C55.2968 65.88 55.3232 65.9126 55.3552 65.939C55.3872 65.9653 55.4242 65.9849 55.464 65.9965C55.5038 66.0082 55.5455 66.0116 55.5867 66.0067C56.0583 66.0067 56.4174 65.3473 56.5189 65.0694C56.5189 65.0694 56.7972 65.0571 56.879 65.0492C56.879 65.0492 56.3792 66.5374 55.0838 66.5374C53.7855 66.5374 53.2567 65.0653 53.2567 65.0653C53.2567 65.0653 54.349 65.1329 54.975 65.1329C55.6006 65.1329 55.9992 65.1297 56.1862 65.1216Z" fill="#FFED00"/>
<path d="M61.249 64.4669C60.3113 64.7459 59.3507 64.9418 58.3786 65.0525C58.3786 65.0525 58.4231 65.1991 58.7324 65.183C58.7939 65.1792 58.8542 65.1645 58.9106 65.1398C58.9402 65.1386 58.9696 65.144 58.9969 65.1555C59.0242 65.167 59.0485 65.1844 59.0683 65.2065C59.088 65.2285 59.1027 65.2547 59.1111 65.283C59.1196 65.3114 59.1217 65.3413 59.1173 65.3705C59.1053 65.4782 59.013 65.6148 58.6983 65.6148C58.5277 65.5946 58.3628 65.5402 58.2137 65.4549C58.0645 65.3696 57.9341 65.255 57.8303 65.1181C57.7037 65.1456 57.5752 65.1636 57.4459 65.172C57.6627 65.4393 57.937 65.6544 58.2483 65.8012C58.5596 65.9481 58.9 66.0229 59.2442 66.0201C60.5577 66.0201 61.0425 64.8467 61.249 64.4669Z" fill="#FFED00"/>
<path d="M60.3682 65.2953C60.3685 65.0977 60.3088 64.9047 60.1968 64.7419C59.6178 64.8753 59.0319 64.9765 58.4417 65.0451C58.4357 65.0677 58.4307 65.0905 58.4266 65.1141C58.5164 65.1743 58.6255 65.1989 58.7326 65.1831C58.794 65.1792 58.8543 65.1645 58.9107 65.1398C58.9403 65.1386 58.9698 65.144 58.997 65.1555C59.0243 65.167 59.0486 65.1845 59.0684 65.2065C59.0881 65.2285 59.1028 65.2547 59.1113 65.283C59.1197 65.3114 59.1218 65.3413 59.1174 65.3705C59.1054 65.4782 59.0131 65.6148 58.6984 65.6148C58.613 65.6133 58.5284 65.5974 58.4482 65.5679C58.489 65.7089 58.561 65.8388 58.6588 65.9482C58.8502 65.9964 59.0469 66.0206 59.2443 66.0201C59.6082 66.0256 59.9653 65.9221 60.2698 65.7229C60.3347 65.5897 60.3684 65.4435 60.3682 65.2953Z" fill="#FFDF00"/>
<path d="M60.3546 65.2954C60.3551 65.0989 60.2951 64.9069 60.1829 64.7456C59.6132 64.8758 59.0368 64.9752 58.4563 65.0432C58.4491 65.0694 58.443 65.0961 58.438 65.1233C58.5268 65.1754 58.6304 65.1965 58.7325 65.1831C58.7939 65.1793 58.8542 65.1646 58.9106 65.1398C58.9402 65.1387 58.9696 65.144 58.9969 65.1556C59.0242 65.1671 59.0485 65.1845 59.0683 65.2066C59.088 65.2286 59.1027 65.2547 59.1111 65.2831C59.1196 65.3115 59.1217 65.3413 59.1173 65.3706C59.1053 65.4783 59.013 65.6149 58.6983 65.6149C58.6184 65.6136 58.5391 65.5997 58.4635 65.5735C58.5063 65.7155 58.5812 65.8457 58.6822 65.9543C58.8663 65.9986 59.0549 66.0207 59.2442 66.0202C59.599 66.0254 59.9477 65.9273 60.2476 65.7377C60.3182 65.6009 60.3548 65.4492 60.3546 65.2954Z" fill="#FFE000"/>
<path d="M60.3414 65.2953C60.3417 65.0995 60.2814 64.9085 60.1688 64.7484C59.6083 64.8764 59.0413 64.9742 58.4703 65.0414C58.4621 65.071 58.4554 65.1009 58.4503 65.1311C58.5369 65.1767 58.6354 65.1948 58.7325 65.183C58.794 65.1792 58.8543 65.1645 58.9107 65.1397C58.9402 65.1386 58.9697 65.1439 58.997 65.1555C59.0242 65.167 59.0486 65.1844 59.0684 65.2065C59.0881 65.2285 59.1027 65.2546 59.1112 65.283C59.1197 65.3114 59.1218 65.3412 59.1174 65.3705C59.1054 65.4782 59.0131 65.6147 58.6984 65.6147C58.6238 65.6138 58.5498 65.6014 58.4789 65.578C58.5236 65.7213 58.6014 65.8521 58.7061 65.9597C58.8826 66.0001 59.0632 66.0204 59.2443 66.02C59.59 66.0249 59.93 65.9319 60.2251 65.7518C60.3016 65.6118 60.3416 65.4548 60.3414 65.2953Z" fill="#FFE200"/>
<path d="M48.9325 64.4669C49.8702 64.746 50.8306 64.9419 51.8026 65.0525C51.8026 65.0525 51.7582 65.1991 51.449 65.183C51.3875 65.1792 51.3271 65.1645 51.2706 65.1398C51.2411 65.1386 51.2116 65.144 51.1844 65.1556C51.1572 65.1671 51.1329 65.1846 51.1132 65.2066C51.0935 65.2286 51.0789 65.2548 51.0705 65.2831C51.062 65.3114 51.0599 65.3413 51.0644 65.3705C51.0757 65.4782 51.1682 65.6148 51.483 65.6148C51.6536 65.5946 51.8183 65.5402 51.9674 65.4549C52.1164 65.3696 52.2467 65.255 52.3504 65.1181C52.4774 65.1456 52.6062 65.1636 52.7358 65.172C52.5189 65.4394 52.2445 65.6545 51.9331 65.8013C51.6217 65.9481 51.2812 66.0229 50.937 66.0201C49.6236 66.0201 49.1386 64.8467 48.9325 64.4669Z" fill="#FFED00"/>
<path d="M54.9583 57.4853C59.4839 57.4853 64.4981 54.7071 68.0144 50.7023C68.3945 50.2696 69.0404 49.449 70.5702 49.449C71.0544 49.4679 71.5293 49.5874 71.9648 49.7999C72.4002 50.0124 72.7867 50.3132 73.0995 50.6832C73.4123 51.0533 73.6446 51.4844 73.7817 51.9491C73.9188 52.4139 73.9576 52.9021 73.8957 53.3826C73.7214 55.2341 71.075 59.4064 66.5496 61.9785C63.0296 64.0256 59.0304 65.104 54.9584 65.104C50.8865 65.104 46.8872 64.0256 43.3673 61.9785C38.8417 59.4064 36.1953 55.2341 36.0208 53.3826C35.9589 52.9021 35.9977 52.4139 36.1348 51.9492C36.2719 51.4845 36.5042 51.0534 36.8169 50.6834C37.1297 50.3134 37.5161 50.0125 37.9515 49.8C38.3869 49.5875 38.8618 49.4679 39.3459 49.449C40.8762 49.449 41.5223 50.2696 41.9022 50.7023C45.4184 54.7071 50.4327 57.4853 54.9583 57.4853Z" fill="#FFED00"/>
<path d="M54.9583 57.3225C57.1512 57.3225 59.4627 56.661 61.6606 55.5191C64.0218 54.2735 66.1342 52.6046 67.8923 50.5956C68.1437 50.2808 68.4404 50.0051 68.7726 49.7773C69.31 49.4392 69.9356 49.2682 70.5702 49.2859C70.6534 49.2859 70.7423 49.2908 70.8358 49.2994C71.7363 49.401 72.5668 49.8338 73.166 50.5136C73.7652 51.1934 74.0902 52.0717 74.0779 52.9778C74.0779 53.11 74.071 53.25 74.0572 53.3977C73.9572 54.461 73.0736 56.2573 71.513 58.0835C70.1286 59.6989 68.4767 61.0642 66.6296 62.1196C64.6135 63.2738 62.4413 64.1309 60.1803 64.6643C56.7453 65.4675 53.1714 65.4675 49.7364 64.6643C47.4754 64.1309 45.3032 63.2738 43.2872 62.1196C41.4399 61.0645 39.7881 59.6994 38.4039 58.084C36.8432 56.2573 35.9596 54.4614 35.8593 53.3977C35.8453 53.2501 35.8384 53.1101 35.8386 52.9778C35.8264 52.0717 36.1514 51.1935 36.7505 50.5137C37.3497 49.8339 38.1801 49.4011 39.0805 49.2994C39.1742 49.2908 39.2627 49.2859 39.3459 49.2859C39.9806 49.2681 40.6063 49.4391 41.1436 49.7773C41.4761 50.005 41.7728 50.2807 42.0243 50.5956C43.7825 52.6046 45.8949 54.2735 48.2563 55.5191C50.4541 56.661 52.7654 57.3225 54.9583 57.3225ZM54.9583 57.648C52.7119 57.648 50.349 56.973 48.106 55.8076C45.7091 54.543 43.5649 52.8489 41.7802 50.8095C41.5475 50.5181 41.2736 50.2622 40.967 50.0499C40.482 49.7464 39.9178 49.5938 39.3459 49.6114C39.265 49.6114 39.1864 49.615 39.1112 49.6225C38.2912 49.7163 37.5354 50.1117 36.9907 50.7319C36.4461 51.352 36.1515 52.1525 36.1643 52.9778C36.1643 53.1081 36.1703 53.238 36.1822 53.3677C36.2772 54.3739 37.1338 56.0977 38.6506 57.8725C40.0101 59.4596 41.6327 60.8007 43.4474 61.8371C45.4363 62.9762 47.5794 63.8217 49.8102 64.3475C53.1966 65.1395 56.72 65.1395 60.1063 64.3475C62.3372 63.8218 64.4803 62.9763 66.4692 61.8371C68.2839 60.8006 69.9066 59.4594 71.2664 57.8725C72.7832 56.0977 73.6394 54.3739 73.7342 53.3677C73.7467 53.2379 73.7524 53.1081 73.7524 52.9778C73.7652 52.1525 73.4706 51.3519 72.9259 50.7318C72.3812 50.1116 71.6254 49.7162 70.8053 49.6225C70.7298 49.615 70.6515 49.6114 70.5702 49.6114C69.9985 49.5938 69.4344 49.7464 68.9495 50.0499C68.643 50.2621 68.3691 50.518 68.1365 50.8095C66.3517 52.8488 64.2075 54.5429 61.8106 55.8076C59.5678 56.973 57.2048 57.648 54.9583 57.648Z" fill="#1D1D1B"/>
<path d="M41.3942 51.1004L41.3415 51.0403C41.1093 50.7225 40.8024 50.4668 40.448 50.2958C40.0935 50.1247 39.7024 50.0437 39.3091 50.0597C38.933 50.0766 38.564 50.168 38.2234 50.3286C37.8829 50.4893 37.5777 50.716 37.3256 50.9956C37.0471 51.3069 36.8389 51.6745 36.7151 52.0735C36.5913 52.4724 36.5549 52.8933 36.6082 53.3076C36.7554 54.8672 39.2311 58.9109 43.6402 61.4174C47.0657 63.4108 50.9581 64.461 54.9213 64.461C58.8845 64.461 62.777 63.4108 66.2024 61.4174C70.6115 58.9109 73.088 54.8672 73.2346 53.3076C73.2879 52.8933 73.2514 52.4723 73.1275 52.0734C73.0037 51.6745 72.7954 51.3069 72.5168 50.9956C72.2648 50.716 71.9598 50.4893 71.6194 50.3286C71.279 50.168 70.9101 50.0766 70.5341 50.0597C70.1408 50.0436 69.7496 50.1247 69.3951 50.2957C69.0406 50.4667 68.7337 50.7224 68.5014 51.0403L68.4485 51.1004C64.6596 55.4153 59.4759 58.0961 54.9214 58.0961C50.3667 58.0961 45.1829 55.4153 41.3942 51.1004Z" fill="#DC2311"/>
<path d="M69.4967 46.01C69.4966 45.2323 69.7271 44.4721 70.1591 43.8255C70.5911 43.1788 71.2051 42.6748 71.9235 42.3772C72.642 42.0795 73.4325 42.0016 74.1952 42.1533C74.958 42.3049 75.6586 42.6794 76.2085 43.2293C76.7584 43.7791 77.1329 44.4797 77.2846 45.2424C77.4363 46.0051 77.3584 46.7957 77.0608 47.5141C76.7632 48.2326 76.2593 48.8467 75.6126 49.2787C74.966 49.7107 74.2058 49.9413 73.4282 49.9412C72.3855 49.9412 71.3856 49.527 70.6483 48.7897C69.9111 48.0525 69.4968 47.0526 69.4967 46.01Z" fill="#FFED00"/>
<path d="M69.3341 46.01C69.3341 45.0629 69.6626 44.1451 70.2635 43.413C70.8643 42.6809 71.7005 42.1798 72.6294 41.995C73.5583 41.8103 74.5225 41.9534 75.3578 42.3998C76.193 42.8463 76.8477 43.5686 77.2101 44.4436C77.5725 45.3187 77.6203 46.2923 77.3454 47.1986C77.0704 48.1049 76.4897 48.8879 75.7022 49.4141C74.9147 49.9402 73.9691 50.1771 73.0266 50.0842C72.084 49.9914 71.2028 49.5746 70.5331 48.9049C70.1524 48.5251 69.8505 48.0739 69.6448 47.5771C69.439 47.0803 69.3334 46.5477 69.3341 46.01ZM69.6596 46.01C69.6597 46.8818 69.9621 47.7266 70.5152 48.4004C71.0684 49.0743 71.838 49.5355 72.6931 49.7055C73.5482 49.8755 74.4357 49.7438 75.2045 49.3327C75.9734 48.9217 76.5759 48.2568 76.9095 47.4514C77.2431 46.6459 77.2871 45.7497 77.034 44.9155C76.7809 44.0812 76.2464 43.3605 75.5215 42.8762C74.7966 42.3918 73.9262 42.1738 73.0586 42.2592C72.191 42.3447 71.3799 42.7283 70.7634 43.3447C70.4129 43.6943 70.1349 44.1097 69.9454 44.5671C69.756 45.0246 69.6588 45.5149 69.6596 46.01Z" fill="#1D1D1B"/>
<path d="M32.6397 46.0162C32.6397 45.2386 32.8703 44.4785 33.3023 43.832C33.7344 43.1854 34.3484 42.6815 35.0668 42.384C35.7852 42.0864 36.5757 42.0086 37.3383 42.1603C38.101 42.312 38.8015 42.6864 39.3514 43.2363C39.9012 43.7861 40.2756 44.4866 40.4273 45.2493C40.579 46.0119 40.5012 46.8024 40.2036 47.5208C39.9061 48.2392 39.4022 48.8533 38.7556 49.2853C38.1091 49.7173 37.349 49.9479 36.5714 49.9479C36.0551 49.9479 35.5438 49.8462 35.0668 49.6486C34.5898 49.451 34.1563 49.1614 33.7912 48.7963C33.4262 48.4313 33.1365 47.9978 32.939 47.5208C32.7414 47.0438 32.6397 46.5325 32.6397 46.0162Z" fill="#FFED00"/>
<path d="M32.4769 46.0162C32.477 45.069 32.8054 44.1511 33.4063 43.4189C34.0072 42.6867 34.8434 42.1856 35.7724 42.0008C36.7014 41.816 37.6657 41.9591 38.5011 42.4056C39.3364 42.8521 39.9911 43.5744 40.3536 44.4495C40.7161 45.3246 40.7639 46.2983 40.489 47.2047C40.214 48.1111 39.6333 48.8941 38.8458 49.4204C38.0582 49.9466 37.1126 50.1835 36.1699 50.0907C35.2273 49.9979 34.346 49.5811 33.6762 48.9114C33.2954 48.5316 32.9934 48.0804 32.7876 47.5835C32.5818 47.0866 32.4762 46.554 32.4769 46.0162ZM32.8025 46.0162C32.8024 46.8882 33.1046 47.7333 33.6578 48.4075C34.2109 49.0817 34.9807 49.5432 35.8359 49.7134C36.6912 49.8837 37.579 49.7521 38.3482 49.3411C39.1173 48.9301 39.7201 48.2652 40.0539 47.4595C40.3877 46.6539 40.4318 45.7575 40.1787 44.9229C39.9257 44.0884 39.3911 43.3675 38.666 42.8829C37.941 42.3984 37.0704 42.1803 36.2025 42.2657C35.3347 42.3511 34.5233 42.7348 33.9066 43.3514C33.5561 43.701 33.2781 44.1163 33.0887 44.5736C32.8992 45.0309 32.8019 45.5212 32.8025 46.0162Z" fill="#1D1D1B"/>
<path d="M74.5045 35.4352L74.5266 34.3826C74.7236 34.5137 74.96 34.5724 75.1955 34.5486C75.4309 34.5247 75.6508 34.4198 75.8175 34.2518C75.9036 34.1537 75.9694 34.0395 76.011 33.9157C76.0526 33.792 76.0692 33.6612 76.0598 33.531C76.0395 33.2048 75.9004 32.8974 75.6689 32.6667C74.3449 31.3763 73.1747 30.0865 73.1747 30.0865C73.071 29.9252 72.9262 29.7943 72.7552 29.7075C72.6568 29.6505 72.5481 29.6138 72.4353 29.5995C72.3226 29.5852 72.2081 29.5937 72.0986 29.6243C71.9892 29.6549 71.887 29.707 71.798 29.7777C71.709 29.8484 71.635 29.9362 71.5804 30.0359C71.1838 30.638 71.2429 31.49 71.3146 31.7993L72.5566 33.4871C73.1604 34.1804 73.8113 34.8313 74.5045 35.4352Z" fill="#1D1D1B"/>
<path d="M48.0323 24.4872C49.6138 23.9063 51.2624 23.528 52.9389 23.3612L48.0323 24.4872Z" fill="#1D1D1B"/>
<path d="M48.0324 24.4913C49.6138 23.9103 51.2625 23.5319 52.939 23.3654L53.2317 23.2002C52.1575 22.3561 51.0924 21.7819 50.0316 21.7819C49.3653 21.7819 48.0117 22.2336 47.7075 24.6212L48.0324 24.4913Z" fill="#1D1D1B"/>
<path d="M61.8887 24.4913C60.3073 23.9103 58.6587 23.532 56.9822 23.3654L56.6894 23.2002C57.7635 22.3561 58.8289 21.7819 59.8897 21.7819C60.5558 21.7819 61.9096 22.2336 62.2135 24.6212L61.8887 24.4913Z" fill="#1D1D1B"/>
<path d="M53.6797 23.1252C53.9971 23.109 54.7297 23.0928 55.0228 23.0928C55.3157 23.0928 56.1246 23.1315 56.302 23.1446L53.6797 23.1252Z" fill="#1D1D1B"/>
<path d="M53.1957 23.2842C53.9808 21.779 54.7002 21.2307 55.0981 21.2307C55.5959 21.2307 56.1786 22.0228 56.6356 23.0423L56.7322 23.2718L56.3346 23.2389C55.8987 23.1954 55.4607 23.1766 55.0227 23.1824C54.7296 23.1824 54.0947 23.1824 53.7121 23.2149L53.1957 23.2842Z" fill="#1D1D1B"/>
<path d="M51.6594 58.9231L50.9564 61.5456L49.6461 58.3835L48.8301 58.1644L47.8364 61.873L48.7213 62.1105L49.4298 59.4668L50.761 62.657L51.5555 62.8702L52.549 59.1614L51.6594 58.9231Z" fill="#FFED00"/>
<path d="M54.7137 59.3913L53.7062 59.3384L53.5053 63.172L54.5129 63.2249L54.7137 59.3913Z" fill="#FFED00"/>
<path d="M55.6191 59.358L55.6898 59.8638L56.765 59.7119L57.2285 63.0089L58.2276 62.8684L57.7644 59.5721L58.8231 59.423L58.7524 58.9178L55.6191 59.358Z" fill="#FFED00"/>
<path d="M66.0188 57.7958C66.507 58.6516 66.4087 59.2735 65.6558 59.7085L65.2986 59.9146L63.8871 57.4706L64.2731 57.2475C65.1738 56.7273 65.6823 57.19 66.0188 57.7958ZM64.0556 56.7821L62.7544 57.5331L64.6799 60.8691L65.9717 60.123C67.3154 59.3475 67.4395 58.1766 66.913 57.2412C66.2765 56.1282 65.2323 56.1028 64.0556 56.7821Z" fill="#FFED00"/>
<path d="M61.6179 61.5053L61.2349 60.3267L62.3724 59.957L62.2126 59.4664L61.0757 59.8361L60.7483 58.8293L61.917 58.4498L61.7595 57.9648L59.6261 58.658L60.812 62.3087L63.165 61.5449L63.0053 61.0543L61.6179 61.5053Z" fill="#FFED00"/>
<path d="M47.0127 57.2757L45.8759 59.3264C45.533 59.9446 45.1794 60.3362 44.601 60.0023C44.0271 59.6846 44.1598 59.2096 44.5111 58.5759L45.6504 56.5201L44.7324 56.0115L43.5293 58.1822C42.8655 59.3797 43.7025 60.1177 44.3513 60.4768C45.0497 60.8644 46.0641 61.1526 46.7222 59.9651L47.9308 57.7843L47.0127 57.2757Z" fill="#FFED00"/>
<path d="M46.3625 34.726V52.7008L54.9581 58.2265L63.5538 52.7008L63.5644 34.7543C63.1611 34.3693 62.7278 34.0169 62.2687 33.7004H47.6079C47.1732 34.0178 46.7573 34.3603 46.3625 34.726Z" fill="#FFED00"/>
<path d="M46.5252 34.7262V52.6127L54.9582 58.033L63.3909 52.6127L63.402 34.7545H63.7274L63.7166 52.7008V52.7895L63.6413 52.838L55.0458 58.3629L54.9582 58.4195L54.8703 58.3629L46.2749 52.838L46.1995 52.7895V34.7262H46.5252Z" fill="#1D1D1B"/>
<path d="M63.4558 34.8758C63.3785 34.8062 63.4369 34.858 63.3546 34.7839H63.3539C62.99 34.4381 62.5988 34.1222 62.1842 33.839L62.3534 33.5616C62.786 33.8547 63.1937 34.1826 63.5727 34.5423H63.5722C63.5799 34.5493 63.5352 34.509 63.6732 34.6328L63.4558 34.8758Z" fill="#1D1D1B"/>
<path d="M62.2687 33.8631H47.608V33.5377H62.2687V33.8631Z" fill="#1D1D1B"/>
<path d="M47.7014 33.8341C47.5258 33.9572 47.2779 34.1524 47.0515 34.3387C46.7861 34.5573 46.5466 34.7658 46.4821 34.8361L46.2431 34.6162C46.3148 34.5377 46.568 34.3167 46.8455 34.0882C47.0866 33.8896 47.3438 33.6869 47.5146 33.567L47.7014 33.8341Z" fill="#1D1D1B"/>
<path d="M55.5654 42.4143C55.5053 42.388 55.2916 42.5607 55.1938 42.7153C55.096 42.87 55.0676 43.0693 55.206 43.1426C55.3443 43.2159 55.5186 43.1208 55.5604 42.8782C55.5847 42.7358 55.6306 42.4428 55.5654 42.4143ZM53.92 42.8782C53.9557 43.1221 54.1357 43.2159 54.2741 43.1426C54.4125 43.0693 54.3839 42.87 54.2865 42.7153C54.1885 42.5607 53.9871 42.388 53.927 42.4143C53.8617 42.4428 53.8997 42.7397 53.92 42.8782ZM54.7829 45.2691C54.9628 44.9673 55.1004 44.6421 55.1919 44.3028H54.3655C54.4619 44.6417 54.6022 44.9666 54.7829 45.2691ZM54.9253 41.7087L55.5931 40.5474L56.1133 41.7087H56.9762C56.5197 42.1642 56.2573 42.7789 56.244 43.4237V43.9607C56.2286 44.1653 56.1903 44.3674 56.1299 44.5634C56.1299 44.5634 56.8772 45.1343 56.9928 45.2307C57.0416 45.2713 57.0931 45.2951 57.058 45.3936C56.9984 45.5619 56.4931 45.7865 56.4392 45.8328C56.3253 45.9304 56.2948 45.9946 56.3279 46.0932C56.3608 46.1908 56.4556 46.2076 56.6508 46.142C56.8462 46.0771 57.2534 45.8655 57.5955 45.7191C57.8507 45.6276 58.1219 45.5887 58.3926 45.6047V44.9535H57.1068V42.87L56.8787 42.5064L57.4489 41.4969L58.0185 42.512L57.7907 42.87V43.9607H58.4501V42.87L58.2222 42.512L58.7914 41.5024L59.3608 42.512L59.1335 42.87V43.9607H59.7926V42.87L59.5652 42.512L60.1347 41.5024L60.7046 42.512L60.4762 42.87L60.4835 44.9526L59.1907 44.953V45.91C59.5159 46.2602 59.7164 46.7081 59.7608 47.184C59.7654 47.2866 59.7456 47.3887 59.7031 47.4821C59.6606 47.5755 59.5966 47.6576 59.5164 47.7215C59.5835 47.9432 59.5946 48.1781 59.5488 48.4052C59.472 48.6611 59.3447 48.8989 59.1743 49.1047V54.0686C59.1743 54.4066 58.3926 54.3744 58.3926 54.0845V49.2191C57.9532 48.7307 56.7486 48.3564 56.7486 48.3564C56.4383 48.7109 56.1955 49.1192 56.0323 49.5612C56.1333 49.607 56.2465 49.6191 56.3549 49.5956C56.4634 49.5721 56.5614 49.5142 56.6344 49.4307C56.694 49.3682 56.7721 49.3266 56.8571 49.3119C56.9422 49.2972 57.0297 49.3103 57.1068 49.3492C57.2371 49.4307 57.27 49.4634 57.2205 49.659C57.151 49.9025 57.1075 50.1526 57.0907 50.4052C57.0907 50.6333 57.351 50.5845 57.5465 50.6011C57.9368 50.6333 58.0022 51.073 57.9695 51.3172C57.8992 51.6776 57.8502 52.0419 57.8229 52.4081C57.8183 52.6858 57.8347 52.9634 57.8719 53.2386C57.926 53.4346 57.9534 53.637 57.9532 53.8403C57.9311 54.1496 57.7416 54.1989 57.5465 54.0038C57.351 53.8076 54.6321 50.9102 54.6321 50.9102C54.4532 51.4961 55.202 52.5052 55.4464 52.8153C55.6904 53.1244 55.6741 53.3523 55.4625 53.5639C55.2508 53.7754 54.8439 53.8893 54.7624 54.0845C54.681 54.2802 54.958 54.8663 55.5277 55.5985C56.0974 56.3311 54.8764 56.8199 54.1438 56.9662C53.4112 57.1129 53.4112 56.6078 53.4603 56.3311C53.5027 56.1059 53.5136 55.8758 53.4927 55.6475C53.4764 55.4038 53.2486 55.0617 52.9391 54.6542C52.6298 54.248 52.6298 53.8732 52.7601 52.9288C52.8373 52.417 52.8701 51.8995 52.858 51.3821C52.858 51.3821 52.5321 51.3985 52.06 51.3821C51.5879 51.3662 51.1973 51.0912 51.1647 49.9514C51.1322 48.8117 51.1049 46.0932 51.029 45.811C50.953 45.5292 50.6492 45.4747 50.5189 45.4425C50.4894 45.4314 50.4639 45.4119 50.4456 45.3863C50.4273 45.3607 50.417 45.3303 50.416 45.2988C50.415 45.2674 50.4233 45.2364 50.44 45.2097C50.4566 45.183 50.4809 45.1618 50.5095 45.1489C50.8486 44.9797 51.257 44.5634 51.1049 44.3028C50.953 44.0422 50.3562 44.0965 49.9546 44.2917C49.6063 44.4867 49.2912 44.7358 49.0211 45.0297C48.9125 45.1489 48.8259 45.1489 48.8367 45.0192C48.8198 44.6941 48.7763 44.371 48.7066 44.053C48.6262 43.7974 48.5207 43.5502 48.3919 43.3152C48.3266 43.2065 48.3919 43.1631 48.5003 43.2065C48.6089 43.25 48.8475 43.3476 49.0755 43.4128C49.1837 43.4438 49.2994 43.4344 49.4012 43.3865C49.503 43.3386 49.584 43.2553 49.629 43.1522C49.7375 42.9352 49.9437 42.4688 50.0523 42.2624C50.1609 42.056 50.3347 42.0994 50.4755 42.1322C50.614 42.1788 50.7482 42.2368 50.877 42.3058C51.0071 42.3601 51.1158 42.3493 51.1593 42.2842C51.2295 42.2101 51.2882 42.1259 51.3331 42.0343C51.4089 41.8716 51.5065 41.9475 51.5174 42.0127C51.9064 44.347 52.9175 44.4547 52.9175 44.4547C52.7421 44.8534 52.5427 45.2411 52.3206 45.6158C52.2423 45.7793 52.1944 45.9557 52.1795 46.1364C52.1823 46.8955 52.2367 47.6535 52.3424 48.4052C52.4509 48.9694 52.7981 48.7528 52.9068 48.5787C53.0152 48.4052 53.3517 47.6889 53.3517 47.6889C53.4012 47.5754 53.4306 47.4542 53.4385 47.3307C53.4385 47.1679 53.1562 46.8095 53.091 46.7009C52.8861 46.459 52.7779 46.1498 52.7873 45.8328C52.7873 45.2903 53.2755 44.91 53.4492 44.7691C53.5142 44.7147 53.5629 44.6432 53.5897 44.5628C53.6166 44.4823 53.6206 44.396 53.6012 44.3134C53.4304 43.7363 53.1822 43.1849 52.8634 42.6744C52.6462 42.3383 52.2229 41.6977 52.2229 41.6977H53.102L53.6663 40.5258L54.285 41.7033L54.9253 41.7087ZM58.3926 47.6239V46.9559C58.3193 46.8635 58.2248 46.7902 58.1172 46.742C58.0095 46.6939 57.8918 46.6725 57.7741 46.6795C57.3349 46.6795 57.0743 46.8095 57.0743 46.9237C57.0743 47.1025 57.4649 47.6239 58.3926 47.6239Z" fill="#DC2311"/>
<path d="M47.0357 39.2096H62.8936V40.2912H47.0357V39.2096Z" fill="#DC2311"/>
<path d="M47.0357 38.6535V34.3453H62.8936V38.6535H47.0357Z" fill="#DC2311"/>
<path d="M59.7726 38.782V38.0465H58.6206V37.5721H59.5604V35.4882H58.6974L58.4047 34.9186L58.1116 35.4882H57.2488V37.5721H58.1889V38.0465H55.9326V37.5721H56.8719V35.4882H56.0092L55.7163 34.9186L55.4236 35.4882H54.5606V37.5721H55.5001V38.0465H53.1998V37.5721H54.1394V35.4882H53.2766L52.9837 34.9186L52.6908 35.4882H51.8278V37.5721H52.7676V38.0465L50.9485 38.0514L49.1363 37.6277L49.5019 38.782H59.7726Z" fill="#FFED00"/>
<path d="M49.7623 37.5342L50.9775 37.8326L51.6293 36.0032L51.6296 35.5419L49.7623 37.5342Z" fill="#FFED00"/>
<path d="M52.6951 23.2449C50.8123 23.4122 49.6537 23.8124 48.1236 24.3254C48.1867 23.8117 48.3692 23.3199 48.6564 22.8892C48.6351 23.2297 48.9127 23.5921 49.466 23.5921C50.0189 23.5921 50.3268 23.2731 50.3268 23.0814C50.331 23.0234 50.3236 22.9651 50.305 22.9099C50.2863 22.8548 50.2569 22.8039 50.2183 22.7603C50.1797 22.7167 50.1328 22.6813 50.0803 22.6561C50.0279 22.6309 49.9709 22.6165 49.9127 22.6136C49.6149 22.6136 49.5512 22.8264 49.5722 22.9115C49.5936 22.9967 49.5298 23.0178 49.4447 23.0394C49.3595 23.0603 49.1256 22.9326 49.2107 22.635C49.304 22.3076 49.7 22.1296 50.1675 22.1296C50.1675 22.1296 51.2811 22.085 52.6951 23.2449Z" fill="#FFED00"/>
<path d="M61.8111 24.3386C60.2812 23.8251 59.0704 23.425 57.188 23.2576C58.0545 22.6537 58.8639 22.1409 59.7534 22.1409C60.2209 22.1409 60.6168 22.3187 60.7101 22.646C60.7952 22.9439 60.561 23.0714 60.4762 23.0501C60.3911 23.0288 60.3274 23.0075 60.3486 22.9225C60.3697 22.8376 60.3058 22.6248 60.0082 22.6248C59.95 22.6276 59.893 22.642 59.8405 22.6672C59.788 22.6924 59.741 22.7279 59.7024 22.7715C59.6638 22.8151 59.6344 22.866 59.6157 22.9212C59.5971 22.9764 59.5897 23.0347 59.594 23.0928C59.594 23.2843 59.9019 23.6034 60.4548 23.6034C61.0077 23.6034 61.2861 23.2405 61.2644 22.9003C61.5567 23.3304 61.7439 23.823 61.8111 24.3386Z" fill="#FFED00"/>
<path d="M53.855 22.8952C53.8045 22.9757 53.76 23.036 53.7059 23.1259C54.0169 23.1096 54.7348 23.0936 55.0219 23.0936C55.3092 23.0936 56.102 23.132 56.276 23.1446C55.9952 22.4952 55.4659 21.5985 55.0962 21.5985C55.0234 21.5985 54.8618 21.5604 54.5581 21.9103C54.5581 21.9103 54.5109 22.0645 54.7038 22.035C54.9484 21.9978 55.0409 22.2503 55.0229 22.3755C54.9816 22.5371 54.8885 22.6808 54.7579 22.7845C54.6273 22.8882 54.4663 22.9463 54.2996 22.9498C54.1492 22.962 53.9979 22.9434 53.855 22.8952Z" fill="#FFED00"/>
<path d="M37.4571 33.4871L38.6997 31.7993C38.7713 31.49 38.83 30.638 38.4339 30.0359C38.3792 29.9362 38.3052 29.8484 38.2161 29.7777C38.127 29.707 38.0247 29.6549 37.9152 29.6243C37.8057 29.5937 37.6911 29.5852 37.5783 29.5995C37.4655 29.6138 37.3567 29.6505 37.2582 29.7075C37.0874 29.7946 36.9427 29.9254 36.8387 30.0865C36.8387 30.0865 35.6469 31.4039 34.3281 32.7C34.1033 32.9237 33.9601 33.2163 33.9213 33.531C33.9078 33.7995 34.0005 34.0625 34.1794 34.2632C34.3507 34.43 34.574 34.5328 34.8121 34.5546C35.0502 34.5763 35.2885 34.5156 35.4872 34.3826L35.5088 35.4352C36.2024 34.8316 36.8534 34.1806 37.4571 33.4871Z" fill="#1D1D1B"/>
<path d="M54.9583 31.0277C62.0347 31.0277 66.0645 37.6727 66.94 38.8398C68.5029 40.9235 70.4126 42.6133 72.627 42.0522C75.8828 41.2275 75.709 36.4036 75.709 36.4036C74.928 35.8389 73.588 35.1278 71.1508 31.6715C68.7633 28.2855 63.3582 23.2618 54.9583 23.2618C46.558 23.2618 41.1533 28.2855 38.7657 31.6715C36.3287 35.1278 34.9888 35.8389 34.2076 36.4036C34.2076 36.4036 34.0337 41.2275 37.2898 42.0522C39.5045 42.6133 41.4139 40.9235 42.9766 38.8398C43.8521 37.6727 47.8824 31.0277 54.9583 31.0277Z" fill="#FFED00"/>
<path d="M54.9583 30.865C61.538 30.865 65.5034 36.5161 66.7933 38.355C66.9103 38.5212 67.0055 38.6571 67.0697 38.7424C67.8409 39.7704 68.6952 40.7001 69.6269 41.3012C70.5404 41.8905 71.5293 42.1626 72.5877 41.8945C75.4783 41.1621 75.5531 37.1068 75.5473 36.4876C75.4851 36.4437 75.4168 36.3966 75.3452 36.3469C74.5262 35.7817 73.2096 34.8734 71.0183 31.7649C69.1628 29.1755 66.7255 27.0578 63.9024 25.5822C61.1342 24.1642 58.0685 23.4247 54.9582 23.4247C51.848 23.4247 48.7823 24.1642 46.0141 25.5822C43.191 27.0578 40.7538 29.1755 38.8985 31.7649C36.7062 34.8741 35.3901 35.7822 34.5708 36.3472C34.499 36.3967 34.431 36.4438 34.3689 36.4876C34.3634 37.1068 34.4381 41.1621 37.3291 41.8945C38.3874 42.1626 39.3765 41.8905 40.2899 41.3012C41.2213 40.7001 42.0761 39.7704 42.847 38.7424C42.9109 38.6571 43.0062 38.5212 43.123 38.355C44.4133 36.5163 48.3787 30.865 54.9583 30.865ZM54.9583 31.1906C48.5472 31.1906 44.655 36.7372 43.3888 38.5419C43.2769 38.7012 43.1857 38.8311 43.1064 38.9371C42.3145 39.993 41.433 40.9501 40.4654 41.5746C39.4797 42.2107 38.4067 42.503 37.2502 42.2099C33.8659 41.3526 34.0442 36.4133 34.0446 36.399L34.0469 36.3195L34.1127 36.2719C34.2016 36.2078 34.2905 36.1464 34.3864 36.0801C35.187 35.5278 36.4734 34.6405 38.6327 31.5778C40.5185 28.946 42.9958 26.7935 45.8653 25.2936C48.6793 23.8514 51.796 23.0992 54.9581 23.0992C58.1202 23.0992 61.2369 23.8514 64.051 25.2936C66.9205 26.7933 69.3979 28.9459 71.2836 31.5778C73.4428 34.6398 74.7288 35.5275 75.5295 36.0798C75.6255 36.146 75.7147 36.2077 75.8033 36.2719L75.8695 36.3195L75.8716 36.399C75.8721 36.4133 76.0505 41.3526 72.6663 42.2099C71.5101 42.503 70.437 42.2107 69.4514 41.5746C68.4839 40.9501 67.6024 39.993 66.8106 38.9371C66.7308 38.8311 66.6397 38.7012 66.5279 38.5419C65.2615 36.7372 61.3692 31.1906 54.9583 31.1906Z" fill="#1D1D1B"/>
<path d="M54.9583 30.4006C61.78 30.4006 65.8399 36.1871 67.1745 38.0886C67.2822 38.2429 67.3759 38.3758 67.4413 38.4637C69.2464 40.8699 70.8923 41.8452 72.4728 41.4446C74.7591 40.8652 75.0399 37.7194 75.0716 36.7691L75.0726 36.7334L75.0437 36.7133C74.2394 36.1587 72.8933 35.2305 70.6387 32.0328C69.2913 30.1222 64.1793 23.8888 54.9583 23.8888C45.7375 23.8888 40.6252 30.1222 39.2781 32.0328C37.0389 35.208 35.6338 36.1782 34.8788 36.6992L34.8496 36.7194L34.8506 36.7551C34.8834 37.7093 35.1673 40.8676 37.4435 41.4446C39.0245 41.8452 40.6703 40.8699 42.4749 38.4637C42.5407 38.3758 42.634 38.2429 42.7421 38.0889C44.0764 36.1871 48.1363 30.4006 54.9583 30.4006Z" fill="#DC2311"/>
<path d="M40.2812 33.0663L39.5691 33.9148L40.9044 36.6749L38.039 35.7385L37.4253 36.4691L40.3666 38.9371L40.8107 38.4076L38.7346 36.6584L41.5196 37.5633L41.8118 37.2147L40.4852 34.555L42.5734 36.3069L43.2222 35.5337L40.2812 33.0663Z" fill="#FFED00"/>
<path d="M43.9992 32.4885L43.3332 33.2023L42.6509 31.8836L43.9992 32.4885ZM42.4476 30.746L41.7931 31.4477L43.632 35.1049L44.0808 34.6237L43.5813 33.6556L44.4714 32.7009L45.476 33.1275L46.2166 32.3333L42.4476 30.746Z" fill="#FFED00"/>
<path d="M46.9382 27.2708L48.377 29.5734L45.1709 28.3751L44.4545 28.8228L46.489 32.0785L47.2659 31.5935L45.8155 29.2723L49.0564 30.4743L49.754 30.0381L47.7198 26.7825L46.9382 27.2708Z" fill="#FFED00"/>
<path d="M59.0883 29.156L59.4918 27.9843L60.6221 28.3737L60.7907 27.8858L59.6602 27.4969L60.004 26.4958L61.1659 26.896L61.332 26.4136L59.2109 25.6832L57.9614 29.3133L60.3004 30.1184L60.4678 29.631L59.0883 29.156Z" fill="#FFED00"/>
<path d="M65.6551 28.9132L65.3093 29.2886L66.1167 30.0152L63.8887 32.4896L64.6388 33.1648L66.8667 30.6907L67.6615 31.406L68.0025 31.0272L65.6551 28.9132Z" fill="#FFED00"/>
<path d="M66.7573 34.6779L67.7064 33.8816L68.4749 34.7973L68.8703 34.4657L68.1018 33.55L68.9123 32.8694L69.7022 33.8109L70.0926 33.4828L68.6509 31.7644L65.7106 34.2323L67.3 36.127L67.6949 35.7957L66.7573 34.6779Z" fill="#FFED00"/>
<path d="M71.2057 35.6556C71.2708 35.7152 71.3221 35.7883 71.356 35.8698C71.3899 35.9513 71.4056 36.0392 71.402 36.1274C71.3985 36.2156 71.3757 36.3019 71.3353 36.3804C71.2949 36.4589 71.2379 36.5276 71.1682 36.5818C70.8627 36.8572 70.4779 36.7979 70.1844 36.4719L70.0115 36.2801L70.9812 35.4069L71.2057 35.6556ZM70.6947 37.5474C70.7024 37.5556 71.2884 37.8463 71.937 37.2628C72.4788 36.7746 72.2966 36.1049 71.7312 35.4772L70.6851 34.3159L67.8324 36.8847L68.5074 37.6347L69.6408 36.6144L69.9747 36.9852L69.2529 38.6018L70.1101 39.2914L70.6947 37.5474Z" fill="#FFED00"/>
<path d="M56.2554 25.3614L56.2283 26.9294L54.7199 26.9034L54.7477 25.3349L53.7385 25.3176L53.6718 29.1559L54.6805 29.1739L54.711 27.4188L56.2192 27.4454L56.1884 29.2L57.1977 29.2177L57.2644 25.3789L56.2554 25.3614Z" fill="#FFED00"/>
<path d="M61.7201 31.067C62.436 31.4969 63.2184 31.428 63.5822 30.8218C63.8499 30.3984 63.8523 30.0486 63.5336 29.4225C63.4478 29.241 63.3427 29.113 63.2706 28.9526C63.1312 28.6868 63.0004 28.472 63.124 28.2669C63.2562 28.0475 63.5641 28.0315 63.8456 28.2006C64.085 28.357 64.2556 28.5989 64.3225 28.8768L64.7874 28.6757C64.6426 28.2503 64.3473 27.8926 63.9571 27.6697C63.136 27.1766 62.4668 27.3068 62.1889 27.7699C62.0698 27.9572 62.0072 28.1749 62.0086 28.3968C62.01 28.6188 62.0752 28.8357 62.1966 29.0215C62.1966 29.0215 62.3307 29.2518 62.4091 29.4027C62.5922 29.714 62.8067 30.1026 62.6576 30.3506C62.6208 30.4205 62.5692 30.4816 62.5065 30.5296C62.4437 30.5777 62.3713 30.6115 62.2942 30.6288C62.2171 30.6461 62.1372 30.6465 62.06 30.6298C61.9827 30.6132 61.91 30.5801 61.8468 30.5326C61.7003 30.442 61.574 30.3221 61.4759 30.1805C61.3778 30.0388 61.3101 29.8784 61.2769 29.7093L60.7677 29.9292C60.9242 30.4184 61.2661 30.8269 61.7201 31.067Z" fill="#FFED00"/>
<path d="M51.2549 25.5628C49.9977 25.8305 49.1745 26.7527 49.446 28.0033C49.6007 28.6781 50.2056 29.9258 52.1129 29.5203C52.5298 29.4483 52.9131 29.2458 53.2075 28.942L52.8563 28.5412C52.6635 28.7782 52.3921 28.9383 52.0914 28.9925C51.1702 29.1882 50.62 28.4388 50.4832 27.7939C50.2805 26.8405 50.8362 26.1785 51.4701 26.0439C51.7696 25.9742 52.0838 26.0072 52.3623 26.1374L52.3676 26.1364L52.4846 25.647C52.0943 25.4879 51.6632 25.4583 51.2549 25.5628Z" fill="#FFED00"/>
<path d="M71.6068 31.9472C71.5539 31.7194 71.4793 30.747 71.8483 30.234C72.1894 29.761 72.5 29.9211 72.6664 29.9952C72.7567 30.0402 72.835 30.1059 72.895 30.187C72.9549 30.2682 72.9947 30.3624 73.0111 30.4619C73.0303 30.6568 72.9793 30.8521 72.8673 31.0127C72.653 31.2357 72.3916 31.4081 72.1022 31.5173C72.6622 32.5125 73.3795 33.4105 74.2262 34.1766L74.2214 35.0771C72.2452 33.1712 71.6068 31.9472 71.6068 31.9472Z" fill="#FFED00"/>
<path d="M72.5976 31.6716C73.1201 32.5402 73.7719 33.324 74.5308 33.9961C74.737 34.1891 75.2505 34.3499 75.5409 34.0242C75.6632 33.8829 75.7248 33.6989 75.712 33.5124C75.69 33.2706 75.5832 33.0443 75.4106 32.8735C75.1625 32.6608 74.095 31.5826 73.3298 30.7358C73.2983 30.8796 73.2471 31.0184 73.1779 31.1483C73.0393 31.3753 72.8377 31.5572 72.5976 31.6716Z" fill="#FFED00"/>
<path d="M35.7913 35.0228L35.7862 34.1725C36.6327 33.4073 37.3504 32.5108 37.9119 31.5174C37.6225 31.4082 37.3611 31.2358 37.1469 31.0127C37.0345 30.8523 36.9832 30.6569 37.0026 30.4619C37.0191 30.3625 37.0589 30.2684 37.1188 30.1873C37.1786 30.1062 37.2568 30.0404 37.3469 29.9952C37.5139 29.9211 37.8243 29.761 38.1651 30.234C38.5344 30.747 38.4376 31.7129 38.3852 31.9405C38.3852 31.9405 37.7122 33.1126 35.7913 35.0228Z" fill="#FFED00"/>
<path d="M37.3911 31.6716C36.8692 32.5406 36.2172 33.3245 35.458 33.9961C35.252 34.1891 34.7384 34.3499 34.4486 34.0242C34.3878 33.9543 34.3414 33.8732 34.312 33.7853C34.2826 33.6975 34.2708 33.6048 34.2772 33.5124C34.2991 33.2705 34.4059 33.0441 34.5789 32.8735C34.8266 32.6608 35.8944 31.5826 36.6593 30.7358C36.6909 30.8796 36.7421 31.0184 36.8113 31.1483C36.9498 31.3753 37.1512 31.5571 37.3911 31.6716Z" fill="#FFED00"/>
<path d="M33.3795 46.0489C33.3795 45.4164 33.5671 44.7981 33.9185 44.2721C34.2699 43.7462 34.7693 43.3363 35.3537 43.0942C35.9381 42.8521 36.5811 42.7888 37.2015 42.9121C37.8219 43.0355 38.3918 43.3401 38.839 43.7874C39.2863 44.2346 39.5909 44.8045 39.7143 45.4249C39.8378 46.0452 39.7744 46.6883 39.5324 47.2727C39.2903 47.857 38.8804 48.3565 38.3545 48.708C37.8286 49.0594 37.2103 49.247 36.5777 49.247C35.7296 49.247 34.9161 48.91 34.3163 48.3103C33.7166 47.7105 33.3796 46.8971 33.3795 46.0489Z" fill="#DC2311"/>
<path d="M38.298 43.7327C38.3532 43.7767 38.4916 43.8905 38.4916 43.8905C38.7785 44.1318 39.0079 44.4341 39.1632 44.7752C39.3463 45.2124 38.7825 45.8687 38.6174 46.0225C37.8716 46.7182 37.4076 46.7071 37.1414 46.7456C37.0911 46.7595 37.0383 46.7616 36.9871 46.7518C36.9358 46.7419 36.8876 46.7203 36.8461 46.6887C36.8046 46.6571 36.771 46.6163 36.7478 46.5696C36.7247 46.5228 36.7127 46.4713 36.7128 46.4192C36.7899 45.8003 36.9762 45.2 37.2631 44.6463C37.3183 44.5665 37.3895 44.4991 37.4723 44.4485C37.7261 44.3927 37.9608 44.2712 38.1528 44.0961C38.238 43.9932 38.2888 43.8661 38.298 43.7327ZM35.6218 43.311C35.925 43.2087 36.2427 43.1559 36.5627 43.1546C37.0468 43.137 37.5258 43.2584 37.9431 43.5045C37.988 43.531 38.0245 43.5698 38.0481 43.6164C38.0718 43.6629 38.0816 43.7153 38.0765 43.7672C38.0765 44.1437 37.4832 44.2716 37.0881 44.2716C36.6706 44.2403 36.2594 44.1515 35.8661 44.0076C35.5229 43.9004 35.4464 43.6998 35.4464 43.6115C35.4476 43.5506 35.4644 43.491 35.4951 43.4384C35.5258 43.3859 35.5694 43.342 35.6218 43.311ZM34.3569 47.9187C33.8987 47.4059 33.652 46.7384 33.6667 46.0509C33.6665 45.766 33.7082 45.4826 33.7904 45.2098C33.7904 45.2098 33.8582 45.0884 33.9243 45.1917C33.9714 45.2658 34.035 45.3413 34.0922 45.442C34.1499 45.5427 34.4626 45.7804 34.4337 45.9677C34.3619 46.5678 34.3694 47.1747 34.4558 47.7728C34.489 47.9273 34.4403 48.0014 34.3569 47.9187ZM34.4337 45.4939C34.291 45.4153 34.1211 45.0523 34.0659 44.9442C34.025 44.8163 34.0309 44.6781 34.0826 44.5543C34.3066 44.1259 34.658 43.7776 35.0884 43.5575C35.1383 43.5347 35.2152 43.5324 35.2152 43.6556C35.2152 43.7243 35.2491 43.8324 35.2505 43.8992C35.2725 44.0086 35.252 44.1223 35.1933 44.2172C34.9508 44.5826 34.7583 44.9787 34.6209 45.3951C34.5993 45.4829 34.5762 45.573 34.4337 45.4939ZM36.6244 48.9461C36.6039 48.9451 36.5834 48.9466 36.5627 48.9466C36.0511 48.9308 35.5504 48.7954 35.1006 48.5514C34.7434 48.3514 34.6096 47.4374 34.6096 46.9696C34.597 46.0547 34.8472 45.1553 35.3306 44.3783C35.3832 44.3029 35.4592 44.247 35.5468 44.2191C35.6343 44.1913 35.7287 44.193 35.8152 44.224C35.9801 44.2682 36.044 44.3018 36.2334 44.3586C36.3361 44.3903 36.5416 44.4331 36.6958 44.4665C36.85 44.4999 37.0148 44.5326 36.9159 44.8192C36.6629 45.3889 36.505 45.9962 36.4485 46.617C36.4082 47.2691 36.4875 47.9232 36.6824 48.5468C36.7914 48.8406 36.7896 48.9518 36.6244 48.9461ZM37.3839 48.8283C37.2183 48.8821 37.1419 48.7643 37.0649 48.6759C36.7677 48.3365 36.6908 47.4228 36.6908 47.3014C36.6908 47.1802 36.7346 47.048 36.8191 47.0461C37.4437 47.051 38.0495 46.8324 38.527 46.4297C38.8288 46.1812 39.0737 45.8706 39.245 45.5192C39.2878 45.4336 39.3805 45.4485 39.403 45.5725C39.4362 45.7299 39.4548 45.8901 39.4587 46.0509C39.4522 46.6741 39.2477 47.279 38.8747 47.7783C38.5017 48.2776 37.9796 48.6453 37.3839 48.8283Z" fill="#FFED00"/>
<path d="M76.662 46.0489C76.662 45.4164 76.4744 44.7981 76.123 44.2722C75.7716 43.7462 75.2722 43.3363 74.6878 43.0943C74.1034 42.8522 73.4604 42.7889 72.84 42.9123C72.2196 43.0357 71.6498 43.3403 71.2025 43.7875C70.7553 44.2348 70.4507 44.8046 70.3273 45.425C70.2039 46.0454 70.2672 46.6884 70.5093 47.2728C70.7513 47.8571 71.1612 48.3566 71.6871 48.708C72.2131 49.0594 72.8314 49.247 73.4639 49.247C73.8839 49.247 74.2997 49.1643 74.6878 49.0036C75.0758 48.8428 75.4283 48.6073 75.7253 48.3103C76.0223 48.0133 76.2578 47.6608 76.4185 47.2728C76.5793 46.8848 76.662 46.4689 76.662 46.0489Z" fill="#DC2311"/>
<path d="M71.8889 44.0961C72.0807 44.2712 72.3153 44.3928 72.569 44.4485C72.6518 44.499 72.7232 44.5664 72.7784 44.6463C73.065 45.2001 73.2515 45.8003 73.3291 46.4191C73.329 46.4713 73.317 46.5228 73.2938 46.5696C73.2706 46.6163 73.2369 46.6571 73.1954 46.6887C73.1539 46.7202 73.1056 46.7418 73.0543 46.7517C73.0031 46.7616 72.9503 46.7595 72.9 46.7456C72.6336 46.7071 72.1697 46.7182 71.4245 46.0225C71.2591 45.8686 70.6952 45.2124 70.8783 44.7752C71.0334 44.4339 71.2629 44.1316 71.55 43.8905C71.55 43.8905 71.6882 43.7767 71.7432 43.7327C71.7524 43.8661 71.8034 43.9933 71.8889 44.0961ZM74.5947 43.6114C74.5947 43.6998 74.5185 43.9004 74.1752 44.0076C73.782 44.1515 73.3709 44.2403 72.9533 44.2716C72.5581 44.2716 71.9649 44.1437 71.9649 43.7672C71.9599 43.7153 71.9697 43.663 71.9933 43.6165C72.0169 43.57 72.0532 43.5311 72.0981 43.5045C72.5153 43.2585 72.9943 43.1371 73.4783 43.1546C73.7985 43.1559 74.1163 43.2087 74.4197 43.311C74.472 43.342 74.5156 43.3859 74.5462 43.4385C74.5768 43.4911 74.5935 43.5506 74.5947 43.6114ZM75.5858 47.7727C75.6719 47.1746 75.6793 46.5677 75.6077 45.9677C75.5788 45.7804 75.8913 45.5427 75.9493 45.442C76.0067 45.3413 76.0702 45.2658 76.1173 45.1917C76.1831 45.0884 76.2509 45.2098 76.2509 45.2098C76.3334 45.4825 76.3751 45.7659 76.3747 46.0509C76.3896 46.7384 76.1428 47.406 75.6843 47.9187C75.6009 48.0013 75.5524 47.9273 75.5858 47.7727ZM75.4206 45.3951C75.2833 44.9787 75.0907 44.5825 74.8481 44.2172C74.7894 44.1223 74.7689 44.0086 74.7908 43.8992C74.7923 43.8324 74.8264 43.7243 74.8264 43.6556C74.8264 43.5324 74.9031 43.5346 74.9526 43.5575C75.3832 43.7775 75.7347 44.1258 75.9586 44.5542C76.0107 44.678 76.0166 44.8163 75.9754 44.9441C75.8914 45.1504 75.7662 45.3375 75.6077 45.4939C75.4654 45.573 75.4423 45.4828 75.4206 45.3951ZM73.3591 48.5468C73.5537 47.9231 73.6328 47.2691 73.5928 46.617C73.536 45.9963 73.3784 45.389 73.1259 44.8191C73.0264 44.5326 73.1918 44.4999 73.3456 44.4665C73.4995 44.4331 73.7048 44.3903 73.8082 44.3586C73.9971 44.3018 74.061 44.2682 74.2262 44.2239C74.3127 44.193 74.4071 44.1913 74.4947 44.2192C74.5823 44.2471 74.6583 44.303 74.711 44.3783C75.1942 45.1553 75.4444 46.0547 75.4317 46.9696C75.4317 47.4374 75.2978 48.3513 74.9404 48.5513C74.4906 48.7955 73.9899 48.9308 73.4783 48.9465C73.4577 48.9465 73.4375 48.9451 73.4168 48.9461C73.2517 48.9518 73.2495 48.8405 73.3591 48.5468ZM70.5827 46.0509C70.5864 45.89 70.6052 45.7299 70.6387 45.5725C70.6608 45.4485 70.7533 45.4336 70.7966 45.5191C70.9678 45.8707 71.2127 46.1813 71.5147 46.4297C71.992 46.8324 72.5976 47.051 73.2221 47.046C73.3062 47.048 73.3505 47.1802 73.3505 47.3013C73.3505 47.4227 73.2738 48.3364 72.9764 48.6759C72.8995 48.7643 72.8235 48.8821 72.6572 48.8283C72.0615 48.6452 71.5395 48.2774 71.1666 47.7782C70.7937 47.2789 70.5892 46.674 70.5827 46.0509Z" fill="#FFED00"/>
<path d="M70.2797 46.0321C70.2798 45.2885 70.5376 44.568 71.0093 43.9933C71.4811 43.4185 72.1375 43.0251 72.8667 42.8801C73.596 42.7351 74.353 42.8474 75.0087 43.1979C75.6644 43.5484 76.1784 44.1154 76.4629 44.8023C76.7475 45.4893 76.785 46.2536 76.5692 46.9651C76.3534 47.6767 75.8976 48.2914 75.2794 48.7045C74.6612 49.1176 73.9189 49.3036 73.1789 49.2308C72.4389 49.158 71.7471 48.8308 71.2213 48.3051C70.9223 48.007 70.6852 47.6527 70.5236 47.2626C70.362 46.8725 70.2791 46.4543 70.2797 46.0321ZM70.3124 46.0321C70.3123 46.7683 70.5676 47.4817 71.0346 48.0509C71.5016 48.62 72.1515 49.0096 72.8736 49.1533C73.5956 49.297 74.3452 49.1858 74.9945 48.8388C75.6438 48.4918 76.1526 47.9303 76.4344 47.2502C76.7162 46.57 76.7534 45.8132 76.5397 45.1087C76.326 44.4041 75.8746 43.7955 75.2624 43.3865C74.6503 42.9775 73.9153 42.7934 73.1826 42.8655C72.4499 42.9377 71.7649 43.2617 71.2444 43.7823C70.9485 44.0774 70.7138 44.4281 70.5539 44.8142C70.3939 45.2003 70.3119 45.6142 70.3124 46.0321Z" fill="#FFE500"/>
<path d="M110.94 59.48C118.78 59.48 124.94 53.04 124.94 45.24C124.94 37.44 118.78 30.96 110.94 30.96C103.06 30.96 96.9397 37.44 96.9397 45.24C96.9397 53.04 103.06 59.48 110.94 59.48ZM110.9 54.92C105.66 54.92 101.86 50.52 101.86 45.24C101.86 39.96 105.66 35.52 110.9 35.52C116.18 35.52 120.06 39.96 120.06 45.24C120.06 50.52 116.18 54.92 110.9 54.92ZM133.736 59V30.16H129.096V59H133.736ZM153.282 42.76C152.002 40.8 149.402 39.84 147.042 39.84C142.122 39.84 137.882 43.64 137.882 49.64C137.882 55.6 142.162 59.48 147.082 59.48C149.362 59.48 152.002 58.48 153.282 56.52V59H157.922V30.16H153.282V42.76ZM147.802 55.16C144.922 55.16 142.562 52.72 142.562 49.6C142.562 46.48 144.922 44.16 147.802 44.16C150.482 44.16 153.202 46.32 153.202 49.6C153.202 52.88 150.642 55.16 147.802 55.16ZM169.433 31.44V35.8H177.313V59H182.193V35.8H190.073V31.44H169.433ZM199.776 39.84C197.456 39.84 195.416 41.2 194.416 44.32V40.32H189.776V59H194.456V52.48C194.456 47.24 196.136 44.2 199.176 44.2C199.856 44.2 200.816 44.32 201.896 44.88L202.816 40.48C202.096 40.08 200.896 39.84 199.776 39.84ZM219.353 42.92C218.113 40.96 215.633 39.84 213.073 39.84C207.793 39.84 203.953 44 203.953 49.64C203.953 55.44 207.953 59.48 212.953 59.48C215.633 59.48 218.113 58.12 219.353 56.08V59H223.993V40.32H219.353V42.92ZM213.913 55.16C210.873 55.16 208.593 52.64 208.593 49.64C208.593 46.64 210.873 44.16 213.873 44.16C216.633 44.16 219.273 46.44 219.273 49.64C219.273 52.76 216.793 55.16 213.913 55.16ZM255.316 34.48V30.16H253.116C247.916 30.16 245.356 33.4 245.356 38.76V40.32H235.676V38.52C235.636 36.24 236.556 34.48 239.716 34.48H240.996V30.16H238.796C233.596 30.16 231.036 33.4 231.036 38.76V40.32H227.476V44H231.036V59H235.676V44H245.356V59H249.996V44H254.156V40.32H249.996V38.52C249.956 36.24 250.876 34.48 254.036 34.48H255.316ZM265.754 59.48C271.074 59.48 275.714 55.56 275.714 49.64C275.714 43.72 271.074 39.84 265.754 39.84C260.434 39.84 255.834 43.72 255.834 49.64C255.834 55.56 260.434 59.48 265.754 59.48ZM265.754 55.16C262.874 55.16 260.514 52.92 260.514 49.64C260.514 46.44 262.874 44.16 265.754 44.16C268.634 44.16 271.034 46.44 271.034 49.64C271.034 52.92 268.634 55.16 265.754 55.16ZM289.83 39.84C287.51 39.84 285.47 41.2 284.47 44.32V40.32H279.83V59H284.51V52.48C284.51 47.24 286.19 44.2 289.23 44.2C289.91 44.2 290.87 44.32 291.95 44.88L292.87 40.48C292.15 40.08 290.95 39.84 289.83 39.84ZM309.407 42.76C308.127 40.8 305.527 39.84 303.167 39.84C298.247 39.84 294.007 43.64 294.007 49.64C294.007 55.6 298.287 59.48 303.207 59.48C305.487 59.48 308.127 58.48 309.407 56.52V59H314.047V30.16H309.407V42.76ZM303.927 55.16C301.047 55.16 298.687 52.72 298.687 49.6C298.687 46.48 301.047 44.16 303.927 44.16C306.607 44.16 309.327 46.32 309.327 49.6C309.327 52.88 306.767 55.16 303.927 55.16Z" fill="white"/>
</svg>
