<svg width="33" height="31" viewBox="0 0 33 31" fill="none" xmlns="http://www.w3.org/2000/svg">
<g clip-path="url(#clip0_834_93)">
<path d="M27.5895 5.26748C21.6825 5.26748 17.1586 0.508511 17.0824 0.427506C16.5878 -0.105756 15.7206 -0.107881 15.2223 0.427034C15.1771 0.475212 10.642 5.26748 4.71448 5.26748C4.02405 5.26748 3.46448 5.80878 3.46448 6.47665C3.46448 17.1041 5.6803 26.2987 15.6156 30.8645C15.955 31.0204 16.349 31.0204 16.6884 30.8645C26.6461 26.2884 28.8395 17.0621 28.8395 6.47665C28.8395 5.80878 28.2799 5.26748 27.5895 5.26748ZM16.152 28.4242C8.00989 24.3945 6.0968 16.5468 5.97205 7.6289C10.7631 7.19601 14.4938 4.40335 16.152 2.9344C17.8102 4.40335 21.5411 7.19601 26.3319 7.6289C26.2072 16.5486 24.2931 24.395 16.152 28.4242ZM14.8683 16.6818L19.9557 11.7606C20.4437 11.2885 21.2352 11.2883 21.7233 11.7606C22.2115 12.233 22.2115 12.9984 21.7235 13.4707L15.7523 19.2468C15.2643 19.7189 14.4725 19.7187 13.9845 19.2468L10.5807 15.9542C10.0924 15.4819 10.0924 14.7162 10.5807 14.2441C11.0687 13.7718 11.8602 13.7718 12.3485 14.2441L14.8683 16.6818Z" fill="#BCED24"/>
</g>
<defs>
<clipPath id="clip0_834_93">
<rect width="32" height="30.9547" fill="white" transform="translate(0.151855 0.0267334)"/>
</clipPath>
</defs>
</svg>
