<svg width="33" height="32" viewBox="0 0 33 32" fill="none" xmlns="http://www.w3.org/2000/svg">
<g clip-path="url(#clip0_834_73)">
<path d="M16.5015 0.862946C9.78128 0.862946 4.31396 6.15166 4.31396 12.6523C4.31396 16.8175 6.55846 20.4851 9.93896 22.5829V30.9108C9.93896 31.2452 10.1293 31.5525 10.4341 31.7103C10.739 31.8682 11.1088 31.8508 11.3965 31.6653L16.5015 28.3732L21.6065 31.6653C21.894 31.8508 22.2638 31.8682 22.5688 31.7103C22.8737 31.5525 23.064 31.2452 23.064 30.9108V22.5829C26.4445 20.4851 28.689 16.8175 28.689 12.6523C28.689 6.15166 23.2217 0.862946 16.5015 0.862946ZM21.189 29.2162L17.0215 26.5287C16.7066 26.3256 16.2963 26.3256 15.9814 26.5287L11.814 29.2162V23.5343C13.2577 24.1184 14.8412 24.4417 16.5015 24.4417C18.1617 24.4417 19.7452 24.1184 21.189 23.5343V29.2162ZM16.5015 22.628C10.8152 22.628 6.18896 18.1529 6.18896 12.6523C6.18896 7.15177 10.8152 2.6767 16.5015 2.6767C22.1878 2.6767 26.814 7.15177 26.814 12.6523C26.814 18.1529 22.1878 22.628 16.5015 22.628Z" fill="#BCED24"/>
<path d="M23.9568 10.5308C23.8472 10.1997 23.5516 9.95832 23.1957 9.90947L19.1454 9.35362L17.3382 5.89509C17.1787 5.58984 16.8551 5.39734 16.5015 5.39734C16.1478 5.39734 15.8243 5.58984 15.6648 5.89509L13.8575 9.35362L9.80727 9.90947C9.4514 9.95832 9.15571 10.1997 9.04609 10.5308C8.93646 10.8619 9.03227 11.2246 9.29265 11.4643L12.2099 14.15L11.5223 17.9367C11.4607 18.2757 11.6029 18.6193 11.8894 18.8235C12.1758 19.0278 12.5572 19.0576 12.8738 18.9004L16.5015 17.0991L20.1292 18.9004C20.4464 19.0579 20.8277 19.0275 21.1135 18.8236C21.4 18.6194 21.5422 18.2758 21.4807 17.9367L20.793 14.15L23.7103 11.4643C23.9707 11.2246 24.0665 10.862 23.9568 10.5308ZM19.1364 13.1713C18.909 13.3806 18.805 13.6861 18.8593 13.9851L19.3077 16.4538L16.9296 15.273C16.6608 15.1396 16.3421 15.1396 16.0733 15.273L13.6953 16.4538L14.1436 13.9851C14.1979 13.6861 14.0939 13.3806 13.8665 13.1713L11.9883 11.4421L14.6052 11.083C14.9087 11.0413 15.172 10.8588 15.3102 10.5942L16.5015 8.31446L17.6927 10.5942C17.831 10.8588 18.0942 11.0413 18.3977 11.0829L21.0147 11.442L19.1364 13.1713Z" fill="#BCED24"/>
</g>
<defs>
<clipPath id="clip0_834_73">
<rect width="32" height="30.9547" fill="white" transform="translate(0.501465 0.862946)"/>
</clipPath>
</defs>
</svg>
