<svg width="33" height="32" viewBox="0 0 33 32" fill="none" xmlns="http://www.w3.org/2000/svg">
<g clip-path="url(#clip0_834_100)">
<path d="M32.5695 10.3078C33.0291 9.86315 33.0285 9.14418 32.57 8.7009L24.4597 0.855035C24.0019 0.412419 23.2568 0.412721 22.7989 0.855579C22.7988 0.855579 22.7987 0.85564 22.7987 0.8557C21.7337 1.88591 20.019 1.93458 18.8968 0.968395C18.4334 0.567253 17.7244 0.587204 17.2829 1.01422L1.42242 16.3572C0.98111 16.7841 0.960235 17.4698 1.37361 17.917C2.3743 19.004 2.3238 20.6627 1.25855 21.6932C0.798985 22.1378 0.799548 22.8568 1.25811 23.3L9.36842 31.1458C9.82617 31.5882 10.5712 31.5882 11.0294 31.1451C12.0972 30.1122 13.8117 30.0679 14.9313 31.0324C15.3948 31.4336 16.1037 31.4137 16.5452 30.9866L32.4057 15.6436C32.847 15.2167 32.8679 14.531 32.4547 14.0841C31.4542 12.9967 31.5046 11.3379 32.5695 10.3078ZM30.6473 14.7795L28.4109 16.9429L27.4743 16.0369C27.1082 15.6827 26.5146 15.6827 26.1485 16.0369C25.7824 16.391 25.7824 16.9653 26.1485 17.3194L27.0851 18.2255L15.6523 29.2854C14.0282 28.2404 11.8504 28.2609 10.235 29.419L3.0428 22.4614C4.22055 20.9224 4.27761 18.8176 3.18092 17.2212L14.6139 6.16117L15.3653 6.888C15.7314 7.24216 16.3249 7.24216 16.6911 6.888C17.0572 6.53383 17.0572 5.9596 16.6911 5.60543L15.9397 4.8786L18.1759 2.71534C19.8256 3.77584 22.002 3.7207 23.5929 2.58167L30.7853 9.53952C29.6082 11.078 29.551 13.1828 30.6473 14.7795Z" fill="#BCED24"/>
<path d="M23.4086 12.1038C23.0426 11.7496 22.4489 11.7496 22.0828 12.1038C21.7167 12.4579 21.7167 13.0322 22.0828 13.3863L23.4971 14.7544C23.8631 15.1085 24.4568 15.1085 24.8229 14.7544C25.189 14.4002 25.189 13.826 24.8229 13.4718L23.4086 12.1038Z" fill="#BCED24"/>
<path d="M19.3428 8.17059C18.9768 7.81643 18.3832 7.81643 18.017 8.17059C17.6508 8.52476 17.6508 9.09899 18.017 9.45316L19.4312 10.8212C19.7972 11.1754 20.3908 11.1754 20.757 10.8212C21.1231 10.467 21.1231 9.89281 20.757 9.53865L19.3428 8.17059Z" fill="#BCED24"/>
<path d="M23.5174 5.35657C23.1514 5.0024 22.5578 5.0024 22.1916 5.35657C21.8255 5.71073 21.8255 6.28491 22.1916 6.63907L26.591 10.8949C26.957 11.2491 27.5507 11.2491 27.9168 10.8949C28.2829 10.5408 28.2829 9.96658 27.9168 9.61242L23.5174 5.35657Z" fill="#BCED24"/>
<path d="M16.5277 13.135C16.1617 12.7807 15.568 12.7807 15.2019 13.135L7.61242 20.4769C7.2463 20.8311 7.2463 21.4052 7.61242 21.7594C7.97849 22.1136 8.57211 22.1136 8.93824 21.7594L16.5278 14.4175C16.8939 14.0633 16.8939 13.4891 16.5277 13.135Z" fill="#BCED24"/>
<path d="M18.5503 16.3741L10.9607 23.716C10.5946 24.0702 10.5946 24.6444 10.9607 24.9985C11.3268 25.3527 11.9203 25.3527 12.2865 24.9985L19.8762 17.6566C20.2423 17.3024 20.2423 16.7282 19.8762 16.3741C19.5101 16.0199 18.9165 16.0198 18.5503 16.3741Z" fill="#BCED24"/>
</g>
<defs>
<clipPath id="clip0_834_100">
<rect width="32" height="30.9547" fill="white" transform="translate(0.914062 0.523102)"/>
</clipPath>
</defs>
</svg>
