<svg width="43" height="30" viewBox="0 0 43 30" fill="none" xmlns="http://www.w3.org/2000/svg">
<path fill-rule="evenodd" clip-rule="evenodd" d="M0.391754 1.92783C0.391754 0.863121 1.25488 0 2.31959 0H40.8763C41.941 0 42.8041 0.863121 42.8041 1.92783V27.6323C42.8041 28.697 41.941 29.5601 40.8763 29.5601H2.31959C1.25488 29.5601 0.391754 28.697 0.391754 27.6323V1.92783Z" fill="white"/>
<path fill-rule="evenodd" clip-rule="evenodd" d="M40.8763 0.642612H2.31959C1.60978 0.642612 1.03437 1.21803 1.03437 1.92783V27.6323C1.03437 28.3421 1.60978 28.9175 2.31959 28.9175H40.8763C41.5861 28.9175 42.1615 28.3421 42.1615 27.6323V1.92783C42.1615 1.21803 41.5861 0.642612 40.8763 0.642612ZM2.31959 0C1.25488 0 0.391754 0.863121 0.391754 1.92783V27.6323C0.391754 28.697 1.25488 29.5601 2.31959 29.5601H40.8763C41.941 29.5601 42.8041 28.697 42.8041 27.6323V1.92783C42.8041 0.863121 41.941 0 40.8763 0H2.31959Z" fill="#E6E7E8"/>
<path fill-rule="evenodd" clip-rule="evenodd" d="M19.6844 19.1139H17.4098L18.8325 10.5465H21.107L19.6844 19.1139Z" fill="#0742A6"/>
<path fill-rule="evenodd" clip-rule="evenodd" d="M27.9301 10.7559C27.4815 10.5825 26.7699 10.3911 25.89 10.3911C23.6437 10.3911 22.0618 11.5577 22.0521 13.2255C22.0335 14.456 23.1847 15.1395 24.0457 15.5498C24.9257 15.969 25.2249 16.2427 25.2249 16.6164C25.2159 17.1904 24.5137 17.4549 23.8589 17.4549C22.9507 17.4549 22.4641 17.3185 21.7246 16.9992L21.4251 16.8623L21.1068 18.7855C21.6403 19.0222 22.6232 19.2323 23.6437 19.2415C26.0304 19.2415 27.5842 18.093 27.6026 16.3156C27.6117 15.3403 27.0038 14.593 25.6933 13.9824C24.8977 13.5904 24.4105 13.326 24.4105 12.925C24.4198 12.5603 24.8226 12.1869 25.7207 12.1869C26.4601 12.1686 27.0035 12.3417 27.4151 12.5149L27.6208 12.6059L27.9301 10.7559Z" fill="#0742A6"/>
<path fill-rule="evenodd" clip-rule="evenodd" d="M32.0017 10.5465H33.7611L35.5962 19.1138H33.4901C33.4901 19.1138 33.284 18.1294 33.2187 17.8286H30.2982C30.2137 18.0563 29.8208 19.1138 29.8208 19.1138H27.4341L30.8128 11.2573C31.0469 10.7013 31.4591 10.5465 32.0017 10.5465ZM31.8615 13.6817C31.8615 13.6817 31.1407 15.5866 30.9533 16.0788H32.844C32.7505 15.6504 32.3197 13.5997 32.3197 13.5997L32.1608 12.8615C32.0938 13.0516 31.997 13.3129 31.9317 13.4892C31.8874 13.6087 31.8577 13.6891 31.8615 13.6817Z" fill="#0742A6"/>
<path fill-rule="evenodd" clip-rule="evenodd" d="M15.5098 10.5465L13.2822 16.3886L13.0387 15.2038C12.6269 13.8366 11.3353 12.3512 9.89389 11.6126L11.9343 19.1048H14.3397L17.9151 10.5465H15.5098V10.5465Z" fill="#0742A6"/>
<path fill-rule="evenodd" clip-rule="evenodd" d="M11.2137 10.5474H7.55398L7.51654 10.7205C10.3713 11.4314 12.262 13.1452 13.0388 15.205L12.2432 11.2675C12.1122 10.7203 11.7097 10.5654 11.2137 10.5474Z" fill="#0742A6"/>
</svg>
